<svg viewBox="0 0 1344 793" xmlns="http://www.w3.org/2000/svg" fill-rule="evenodd" clip-rule="evenodd" stroke-linejoin="round" stroke-miterlimit="1.414"><path d="M357.82 750.231h11.666c2.1 0 4.005.224 5.716.671 1.711.447 3.18 1.128 4.405 2.042a9.17 9.17 0 0 1 2.83 3.441c.66 1.381.99 3.004.99 4.871 0 1.867-.34 3.49-1.02 4.871a9.452 9.452 0 0 1-2.859 3.442c-1.225.913-2.703 1.604-4.433 2.07-1.73.467-3.646.7-5.746.7h-7.35v19.192h-4.2v-41.3zm4.2 18.55h7.116c3.305 0 5.814-.642 7.525-1.925 1.711-1.283 2.566-3.15 2.566-5.6 0-2.567-.884-4.443-2.654-5.629-1.769-1.186-4.248-1.779-7.437-1.779h-7.117v14.933zm48.941-18.55h4.2v17.908h22.516v-17.908h4.2v41.3h-4.2V771.99h-22.516v19.542h-4.2v-41.3zm102.025 20.65c0 3.15-.545 6.047-1.634 8.692-1.089 2.644-2.595 4.93-4.52 6.854-1.925 1.925-4.2 3.432-6.825 4.521-2.625 1.09-5.474 1.633-8.546 1.633-3.073 0-5.92-.544-8.546-1.633-2.625-1.089-4.9-2.596-6.825-4.52-1.925-1.926-3.432-4.21-4.52-6.855-1.09-2.645-1.634-5.542-1.634-8.692 0-3.15.544-6.047 1.633-8.692 1.09-2.644 2.596-4.929 4.521-6.854 1.925-1.925 4.2-3.432 6.825-4.52 2.625-1.09 5.473-1.634 8.546-1.634 3.072 0 5.921.544 8.546 1.633 2.625 1.09 4.9 2.596 6.825 4.521 1.925 1.925 3.431 4.21 4.52 6.854 1.09 2.645 1.634 5.542 1.634 8.692zm-4.434 0c0-2.41-.389-4.706-1.166-6.883-.778-2.178-1.906-4.093-3.384-5.746-1.477-1.653-3.276-2.965-5.395-3.938-2.12-.972-4.502-1.458-7.146-1.458-2.645 0-5.027.486-7.146 1.458-2.12.973-3.918 2.285-5.396 3.938-1.478 1.653-2.606 3.568-3.383 5.746-.778 2.177-1.167 4.472-1.167 6.883 0 2.411.39 4.706 1.167 6.883.777 2.178 1.905 4.084 3.383 5.717s3.276 2.936 5.396 3.908c2.12.973 4.501 1.46 7.146 1.46 2.644 0 5.026-.487 7.146-1.46 2.12-.972 3.918-2.275 5.395-3.908 1.478-1.633 2.606-3.539 3.384-5.717.777-2.177 1.166-4.472 1.166-6.883zm43.984 20.65h-4.2v-37.567h-13.825v-3.733h31.85v3.733h-13.825v37.567zm78.4-20.65c0 3.15-.545 6.047-1.634 8.692-1.089 2.644-2.595 4.93-4.52 6.854-1.925 1.925-4.2 3.432-6.825 4.521-2.625 1.09-5.474 1.633-8.546 1.633-3.073 0-5.92-.544-8.546-1.633-2.625-1.089-4.9-2.596-6.825-4.52-1.925-1.926-3.432-4.21-4.52-6.855-1.09-2.645-1.634-5.542-1.634-8.692 0-3.15.544-6.047 1.633-8.692 1.09-2.644 2.596-4.929 4.521-6.854 1.925-1.925 4.2-3.432 6.825-4.52 2.625-1.09 5.473-1.634 8.546-1.634 3.072 0 5.921.544 8.546 1.633 2.625 1.09 4.9 2.596 6.825 4.521 1.925 1.925 3.431 4.21 4.52 6.854 1.09 2.645 1.634 5.542 1.634 8.692zm-4.434 0c0-2.41-.389-4.706-1.166-6.883-.778-2.178-1.906-4.093-3.384-5.746-1.477-1.653-3.276-2.965-5.395-3.938-2.12-.972-4.502-1.458-7.146-1.458-2.645 0-5.027.486-7.146 1.458-2.12.973-3.918 2.285-5.396 3.938-1.478 1.653-2.606 3.568-3.383 5.746-.778 2.177-1.167 4.472-1.167 6.883 0 2.411.39 4.706 1.167 6.883.777 2.178 1.905 4.084 3.383 5.717s3.276 2.936 5.396 3.908c2.12.973 4.501 1.46 7.146 1.46 2.644 0 5.026-.487 7.146-1.46 2.12-.972 3.918-2.275 5.395-3.908 1.478-1.633 2.606-3.539 3.384-5.717.777-2.177 1.166-4.472 1.166-6.883zm63.818-13.241a15.053 15.053 0 0 0-5.134-3.53c-1.984-.836-4.259-1.254-6.825-1.254-2.645 0-5.027.486-7.146 1.458-2.12.973-3.918 2.285-5.396 3.938-1.478 1.653-2.615 3.568-3.412 5.746-.798 2.177-1.196 4.472-1.196 6.883 0 2.411.398 4.706 1.196 6.883.797 2.178 1.934 4.084 3.412 5.717s3.276 2.936 5.396 3.908c2.12.973 4.501 1.46 7.146 1.46 2.333 0 4.472-.254 6.416-.76 1.945-.505 3.52-1.147 4.725-1.925v-12.54h-9.625v-3.676h13.825v18.608a26.77 26.77 0 0 1-7.29 3.033 32.856 32.856 0 0 1-8.11.992c-3.11 0-5.989-.544-8.633-1.633-2.644-1.089-4.919-2.596-6.825-4.52-1.906-1.926-3.393-4.21-4.462-6.855-1.07-2.645-1.605-5.542-1.605-8.692 0-3.15.545-6.047 1.634-8.692 1.09-2.644 2.596-4.929 4.521-6.854 1.925-1.925 4.2-3.432 6.824-4.52 2.625-1.09 5.474-1.634 8.546-1.634 3.306 0 6.184.486 8.634 1.458 2.45.973 4.55 2.334 6.3 4.084l-2.917 2.916zm37.624 33.891h-4.2v-41.3h12.133c2.023 0 3.9.194 5.63.583 1.73.39 3.227 1.021 4.491 1.896a8.944 8.944 0 0 1 2.946 3.413c.7 1.4 1.05 3.111 1.05 5.133 0 1.517-.272 2.897-.817 4.142a10.204 10.204 0 0 1-2.216 3.237c-.934.914-2.042 1.643-3.325 2.188-1.284.544-2.684.894-4.2 1.05l12.075 19.658h-5.134l-11.433-19.308h-7v19.308zm0-22.925h7.292c3.383 0 5.99-.612 7.816-1.837 1.828-1.225 2.742-3.063 2.742-5.513 0-1.36-.253-2.508-.758-3.442a6.221 6.221 0 0 0-2.1-2.275c-.895-.583-1.984-1.01-3.267-1.283-1.283-.272-2.703-.408-4.258-.408h-7.467v14.758zm49.758 22.925h-4.608l17.85-41.3h4.083l17.734 41.3h-4.667l-4.55-10.85h-21.35l-4.492 10.85zm6.067-14.7h18.2l-9.1-21.933-9.1 21.933zm54.367-26.6h11.666c2.1 0 4.006.224 5.717.671 1.711.447 3.18 1.128 4.404 2.042a9.17 9.17 0 0 1 2.83 3.441c.66 1.381.991 3.004.991 4.871 0 1.867-.34 3.49-1.02 4.871a9.44 9.44 0 0 1-2.859 3.442c-1.225.913-2.703 1.604-4.434 2.07-1.73.467-3.645.7-5.745.7h-7.35v19.192h-4.2v-41.3zm4.2 18.55h7.116c3.306 0 5.814-.642 7.525-1.925 1.711-1.283 2.567-3.15 2.567-5.6 0-2.567-.885-4.443-2.654-5.629-1.77-1.186-4.249-1.779-7.438-1.779h-7.116v14.933zm48.941-18.55h4.2v17.908h22.517v-17.908h4.2v41.3h-4.2V771.99h-22.517v19.542h-4.2v-41.3zm75.367 41.3h-4.2V773.74l-15.458-23.508h5.25l12.425 20.008 12.541-20.008h4.9l-15.458 23.508v17.792zM238 656.051h33v6.4h-40.2v-70.8h7.2v64.4zm71 0h37.9v6.4h-45.1v-70.8h43.9v6.4H309v24.4h34.3v6.3H309v27.3zm106.3-53c-1.534-2.133-3.5-3.85-5.9-5.15-2.4-1.3-5.3-1.95-8.7-1.95-1.734 0-3.5.267-5.3.8a15.36 15.36 0 0 0-4.9 2.45c-1.468 1.1-2.65 2.483-3.55 4.15-.9 1.667-1.35 3.633-1.35 5.9 0 2.267.432 4.133 1.3 5.6a12.316 12.316 0 0 0 3.45 3.75c1.432 1.033 3.066 1.883 4.9 2.55 1.832.667 3.75 1.333 5.75 2 2.466.8 4.95 1.667 7.45 2.6s4.75 2.15 6.75 3.65 3.632 3.4 4.9 5.7c1.266 2.3 1.9 5.217 1.9 8.75 0 3.533-.684 6.583-2.05 9.15-1.368 2.567-3.134 4.683-5.3 6.35-2.168 1.667-4.634 2.9-7.4 3.7-2.768.8-5.55 1.2-8.35 1.2-2.134 0-4.268-.217-6.4-.65a28.911 28.911 0 0 1-6.1-1.95 24.992 24.992 0 0 1-5.4-3.3 23.989 23.989 0 0 1-4.4-4.6l6.2-4.6c1.532 2.533 3.682 4.65 6.45 6.35 2.766 1.7 6.016 2.55 9.75 2.55 1.8 0 3.632-.283 5.5-.85a15.462 15.462 0 0 0 5.05-2.6 14.41 14.41 0 0 0 3.7-4.3c.966-1.7 1.45-3.683 1.45-5.95 0-2.467-.484-4.517-1.45-6.15-.968-1.633-2.25-3-3.85-4.1-1.6-1.1-3.434-2.017-5.5-2.75a244.712 244.712 0 0 0-6.5-2.2 85.32 85.32 0 0 1-6.9-2.5c-2.268-.933-4.3-2.15-6.1-3.65-1.8-1.5-3.25-3.35-4.35-5.55-1.1-2.2-1.65-4.9-1.65-8.1 0-3.4.682-6.333 2.05-8.8 1.366-2.467 3.15-4.5 5.35-6.1 2.2-1.6 4.632-2.767 7.3-3.5 2.666-.733 5.3-1.1 7.9-1.1 4.8 0 8.9.85 12.3 2.55 3.4 1.7 5.966 3.717 7.7 6.05l-5.7 4.6zm49.3 53h33v6.4h-40.2v-70.8h7.2v64.4zm63.8-64.4h7.2v70.8h-7.2zm53.2 64.4h37.9v6.4h-45.1v-70.8h43.9v6.4h-36.7v24.4h34.3v6.3h-34.3v27.3zm197-5.8h.1l23.7-58.6h11v70.8h-7.2v-61.5h-.2l-25.6 61.5h-3.8l-25.6-61.5h-.2v61.5h-7.2v-70.8h11l24 58.6zm73.1 12.2h-7.9l30.6-70.8h7l30.4 70.8h-8l-7.8-18.6h-36.6l-7.7 18.6zm10.4-25.2h31.2l-15.6-37.6-15.6 37.6zm87.3 25.2h-7.2v-70.8H963c3.466 0 6.682.333 9.65 1 2.966.667 5.532 1.75 7.7 3.25 2.166 1.5 3.85 3.45 5.05 5.85 1.2 2.4 1.8 5.333 1.8 8.8 0 2.6-.468 4.967-1.4 7.1-.934 2.133-2.2 3.983-3.8 5.55-1.6 1.567-3.5 2.817-5.7 3.75-2.2.933-4.6 1.533-7.2 1.8l20.7 33.7H981l-19.6-33.1h-12v33.1zm0-39.3h12.5c5.8 0 10.266-1.05 13.4-3.15 3.132-2.1 4.7-5.25 4.7-9.45 0-2.333-.434-4.3-1.3-5.9a10.66 10.66 0 0 0-3.6-3.9c-1.534-1-3.4-1.733-5.6-2.2-2.2-.467-4.634-.7-7.3-.7h-12.8v25.3zm72.7-31.5h7.2v70.8h-7.2zm53.2 64.4h37.9v6.4h-45.1v-70.8h43.9v6.4h-36.7v24.4h34.3v6.3h-34.3v27.3z" fill="#fff" fill-rule="nonzero"/><path d="M443.062 486.064h.052l-.071.01.086-.01-.073.01.085-.01-.075.02.083-.01-.077.01.083-.01-.08.01.082-.01-.081.01.08-.01-.083.02.079-.01-.086.01.078-.01-.088.02.077-.01-.091.02.076-.02-.094.02.075-.01-.096.02.073-.01-.1.03.073-.02-.102.03.07-.02-.104.03.07-.02-.08.03.067-.02.068-.02-.048.02.07-.02.07-.03-.066.03.148-.05.153-.05-.08.03.16-.06.13-.05.135-.05.143-.06.149-.06.15-.07.17-.07.16-.07.17-.08.18-.09.18-.08.18-.1.19-.09.19-.1.19-.11.2-.1.2-.11.2-.11.21-.12.21-.12.21-.12.21-.13.21-.13.22-.13.22-.13.22-.13.22-.14.22-.14.22-.14.22-.15.23-.14.22-.15.23-.15.22-.15.23-.15.22-.16.23-.15.22-.16.23-.16.22-.16.22-.15.23-.17.22-.16.22-.16.22-.16.22-.16.21-.17.22-.16.21-.16.21-.16.22-.17.2-.16.21-.16.2-.16.21-.16.19-.17.2-.16.19-.15.2-.16.18-.16.33-.28.34-.29.34-.29.35-.31.36-.31.37-.33.37-.33.38-.34.38-.35.39-.35.4-.37.4-.37.4-.37.41-.39.42-.39.42-.4.42-.4.43-.41.44-.42.43-.42.44-.42.45-.43.44-.44.45-.44.46-.45.45-.45.46-.45.46-.46.46-.46.47-.47.46-.47.47-.47.47-.48.47-.47.47-.48.47-.49.48-.48.47-.49.47-.49.48-.49.47-.49.48-.5.47-.49.47-.5.48-.5.47-.49.47-.5.47-.5.46-.49.47-.5.47-.5.46-.49.46-.5.46-.49.45-.5.46-.49.45-.49.45-.48.44-.49.44-.49.44-.48.44-.48.43-.47.42-.47.52-.57.51-.58.52-.59.53-.59.53-.6.53-.6.54-.61.54-.62.54-.63.55-.63.56-.64.55-.64.56-.65.56-.66.56-.66.57-.66.57-.67.57-.68.57-.68.58-.68.57-.69.58-.7.58-.69.59-.71.58-.7.59-.71.58-.71.59-.72.59-.71.5-.61.09-.12.57-.74.57-.74.57-.74.58-.75.57-.75.57-.74.58-.76.57-.75.58-.75.57-.76.57-.75.57-.76.57-.76.58-.75.57-.76.57-.76.56-.75.57-.76.57-.76.56-.75.56-.76.56-.75.56-.76.56-.75.55-.75.55-.75.55-.75.55-.74.55-.74.54-.74.54-.74.53-.74.54-.73.53-.73.53-.73.53-.74.53-.73.53-.74.53-.74.53-.74.53-.74.53-.75.53-.74.53-.75.53-.74.53-.75.53-.75.53-.75 1.05-1.5 1.06-1.51 1.05-1.51 1.05-1.51 1.06-1.52 1.05-1.52 1.05-1.52 1.05-1.52 1.05-1.52 2.1-3.04 2.09-3.05 2.1-3.04 1.05-1.52 1.05-1.52 1.05-1.52 1.04-1.51 1.05-1.51 1.05-1.51 1.05-1.5 1.05-1.5 1.05-1.5.53-.75.52-.74.76-1.08.76-1.08.76-1.09.77-1.09.77-1.1.76-1.1.77-1.1.77-1.11.77-1.11.77-1.12.77-1.12.77-1.12.77-1.12.77-1.12.77-1.13.77-1.13.76-1.13.76-1.12.76-1.13.76-1.13.76-1.13.75-1.13.75-1.12.74-1.13.74-1.12.74-1.13.73-1.12.73-1.11.72-1.12.72-1.107.72-1.108.7-1.103.7-1.1.7-1.095.34-.544.34-.544.35-.543.34-.542.33-.54.34-.54.33-.536.33-.536.34-.535.32-.532.33-.531.32-.53.33-.528.31-.526.32-.524.32-.522.31-.521.31-.52.31-.515.31-.515.3-.513.31-.51.07-.122.21-.394.28-.517.28-.514.27-.512.28-.51.26-.507.27-.505.27-.502.26-.5.25-.497.26-.494.25-.492.25-.49.25-.485.24-.484.24-.48.24-.478.24-.475.23-.471.23-.47.22-.464.22-.462.22-.46.22-.454.21-.453.21-.448.21-.445.2-.442.2-.438.19-.434.19-.431.19-.427.19-.423.18-.42.17-.414.18-.411.17-.407.19-.463.11-.213.16-.295.2-.325.26-.357.34-.387.42-.411.46-.36.39-.247.35-.191.38-.176.41-.153.43-.125.45-.093.46-.057.47-.02.46.019.44.052.42.083.48.13.61.234.58.309.48.317.38.31.31.29.25.27.21.249.18.228.15.21.12.194.11.18.1.169.09.159.08.15.07.144.06.137.06.133.06.128.06.139.09.225.1.233.08.229.08.225.08.224.07.223.08.224.07.224.07.226.06.227.07.229.07.23.07.232.06.234.06.235.07.236.06.237.07.242.12.472.12.476.04.149.07.327.09.47.09.463.09.45.09.437.15.807.14.71.06.3.05.262.05.21.04.199.04.174.04.217.04.213.03.21.03.208.03.207.02.207.03.208.02.208.02.21.02.212.02.214.02.215.02.218.01.22.02.222.01.224.01.226.01.228.02.236.02.46.02.473.01.479.01.484.01.487.01.49.01.49v2.427l-.01.47-.01.463-.01.453v.442l-.02.43-.01.417-.01.403-.02.388-.02.372-.02.34-.02.417.11-.158.2-.288.2-.284.18-.28.19-.273.18-.27.17-.262.16-.258.17-.252.16-.256.3-.485.31-.504.32-.512.32-.52.33-.527.34-.536.34-.542.35-.551.71-1.12.74-1.147.75-1.172.77-1.196.78-1.217.8-1.238.81-1.256.83-1.274 1.67-2.59 1.71-2.638 1.74-2.674.87-1.344.87-1.35.87-1.35.87-1.35.87-1.35.86-1.345.86-1.34.85-1.334.84-1.327.42-.658.41-.656.41-.653.41-.65.41-.647.4-.643.4-.64.39-.634.39-.631.39-.626.36-.578.35-.58.36-.581.35-.584.36-.586.35-.587.35-.59.36-.59.35-.591.36-.593.35-.594.35-.595.71-1.194.7-1.196.7-1.198.7-1.2.7-1.2.7-1.198 1.38-2.394 1.38-2.38.69-1.182.68-1.178.69-1.171.68-1.163.67-1.155.68-1.145.33-.571.34-.566.34-.564.33-.562.33-.558.34-.556.33-.552.33-.55.33-.545.33-.542.33-.54.33-.534.33-.532.33-.528.32-.524.33-.52.32-.516.33-.511.33-.508.32-.503.27-.422.28-.427.29-.432.29-.437.29-.442.31-.446.3-.45.31-.453.32-.457.32-.46.32-.463.33-.465.25-.348.07-.125.31-.491.31-.492.31-.494.31-.496.32-.498.32-.498.32-.499.32-.499.32-.5.33-.499.32-.499.33-.497.33-.497.33-.495.33-.494.32-.491.33-.489.33-.486.33-.484.33-.48.33-.476.32-.473.33-.468.32-.464.32-.459.33-.454.32-.449.32-.443.31-.437.32-.431.31-.425.31-.418.31-.41.31-.404.3-.396.3-.389.3-.381.29-.369.15-.186.15-.182.15-.179.14-.177.15-.175.14-.172.15-.171.14-.168.14-.167.15-.164.14-.162.14-.16.14-.157.15-.156.14-.153.14-.152.14-.149.14-.147.14-.145.15-.144.14-.141.15-.139.14-.138.15-.136.15-.134.17-.149.17-.14.2-.149.2-.143.21-.135.2-.129.21-.121.21-.115.21-.109.21-.101.21-.095.21-.089.21-.082.21-.077.21-.071.21-.065.21-.06.2-.055.21-.05.2-.045.2-.04.2-.037.2-.032.2-.028.19-.024.2-.021.19-.017.19-.014.19-.011.18-.008.19-.004.18-.002h.19l.18.004.18.005.17.008.18.011.18.012.17.015.17.016.18.019.17.02.17.023.16.024.17.026.17.027.16.03.17.03.16.033.16.034.17.035.16.037.16.038.16.04.15.041.16.043.16.043.16.045.15.047.16.047.15.049.15.05.16.052.15.052.15.054.15.055.15.056.15.058.15.058.15.06.14.061.15.061.15.064.14.064.15.065.14.067.15.067.14.069.14.07.15.071.14.073.14.073.14.075.14.076.14.077.14.078.14.08.13.08.14.082.14.084.13.084.14.086.13.087.14.089.13.09.14.091.13.093.13.094.13.096.13.097.13.099.13.101.13.103.13.104.13.106.13.108.12.109.13.112.12.114.13.116.12.119.13.121.12.123.12.126.12.128.13.131.11.135.12.137.12.14.12.144.12.147.11.151.12.155.11.159.11.163.11.167.11.172.11.177.1.17.1.169.09.158.09.158.08.158.09.157.08.157.08.158.08.157.08.157.08.157.07.158.07.158.08.157.07.159.07.158.07.159.07.159.07.16.07.16.06.161.07.161.06.171.13.315.13.327.12.329.12.331.12.334.12.337.12.338.11.341.11.343.11.346.11.348.11.35.11.352.11.354.1.356.11.358.1.36.1.361.1.362.1.364.1.365.09.367.1.367.09.368.09.369.1.369v.023l.06.351.05.374.06.374.05.374.06.373.05.373.05.372.04.372.05.37.05.369.04.367.05.367.04.364.04.363.04.36.04.359.04.356.03.354.04.35.03.349.03.346.03.342.04.339.02.336.03.332.03.329.02.327.02.22.01.234.03.443.03.452.02.455.02.457.02.459.01.46.01.463.01.464.01.466v1.883l-.01.474v.476l-.01.478-.02.479-.01.48-.01.482-.02.483-.02.484-.02.486-.02.486-.02.487-.03.487-.02.489-.03.489-.03.489-.03.49-.03.49-.03.492-.03.49-.04.49-.03.492-.04.49-.03.49-.04.495-.08.975-.08.976-.08.973-.08.968-.09.964-.08.957-.09.95-.17 1.874-.16 1.837-.09.9-.08.895-.07.875-.08.89-.09.9-.09.906-.09.913-.09.919-.09.925-.1.93-.09.936-.1.939-.11.943-.1.946-.11.948-.11.95-.11.95-.11.953-.12.953-.11.952-.12.95-.12.95-.13.947-.12.945-.13.942-.13.938-.13.934-.14.929-.13.924-.14.918-.14.912-.14.905-.14.894-.07.449-.08.434-.13.847-.14.834-.13.832-.13.83-.12.829-.13.827-.12.827-.12.826-.12.826-.12.825-.24 1.656-.24 1.658-.24 1.664-.24 1.67-.12.84-.12.845-.13.846-.12.85-.13.853-.08.527-.07.327-.19.85-.2.856-.19.86-.2.865-.2.869-.21.875-.21.879-.21.88-.4 1.624-.43 1.758-.96 3.91-.51 2.12-.55 2.23-.56 2.31-.57 2.4-.59 2.47-.3 1.25-.3 1.27-.31 1.28-.3 1.29-.3 1.3-.31 1.31-.31 1.31-.3 1.33-.3 1.32-.31 1.33-.3 1.33-.3 1.32-.3 1.33-.29 1.33-.29 1.32-.29 1.31-.28 1.31-.28 1.3-.28 1.29-.27 1.28-.26 1.26-.26 1.26-.25 1.23-.25 1.23-.12.6-.12.6-.11.59-.12.59-.11.58.92-1.38.62-.93.6-.91.6-.89.3-.45.29-.43.29-.43.29-.43.29-.42.28-.41.28-.4.27-.4.27-.39.27-.38.26-.37.25-.36.26-.35.25-.34.24-.34.24-.32.24-.31.12-.16.1-.13.16-.2.15-.2.14-.19.15-.19.15-.2.14-.19.15-.2.14-.2.14-.2.15-.2.14-.21.14-.2.14-.21.14-.2.14-.21.14-.21.14-.21.14-.22.14-.21.14-.21.28-.43.28-.44.28-.44.28-.44.28-.45.27-.45.56-.91.57-.92.28-.47.29-.46.29-.47.29-.47.3-.47.3-.47.3-.47.15-.24.16-.24.15-.24.16-.23.16-.24.15-.24.16-.23.16-.24.17-.24.16-.23.84-1.21.89-1.28 1.9-2.73 2.03-2.91 1.05-1.51 1.06-1.54 1.07-1.55 1.08-1.56 1.07-1.56.54-.78.53-.78.53-.77.52-.77.52-.77.51-.75.51-.76.5-.74.49-.73.49-.73.48-.72.48-.72.48-.72.49-.711.48-.714.49-.712.48-.711.49-.71.48-.707.49-.708.49-.706.49-.705.49-.704.49-.703.49-.702.5-.702.49-.701.49-.7.5-.7.49-.7.49-.697.5-.7.99-1.395 1-1.395.99-1.395 1-1.396 1-1.397.27-.386.28-.39.29-.391.28-.394.29-.396.29-.4.3-.4.3-.403.3-.405.3-.407.3-.41.31-.41.61-.824.63-.831.63-.835.64-.84.64-.84.65-.843.64-.844.66-.845.65-.843.65-.842.65-.84.65-.835.65-.832.65-.826.64-.82.64-.813 1.25-1.6 1.23-1.562 1.19-1.515 2.25-2.861.91-1.16.46-.585.09-.117.36-.477.45-.598.45-.6.46-.602.45-.602.46-.604.46-.604.46-.604.46-.604.46-.603.46-.602.47-.601.46-.6.47-.596.46-.595.47-.592.46-.588.24-.294.23-.292.24-.292.23-.29.23-.29.24-.288.23-.287.24-.286.23-.284.23-.284.24-.282.23-.281.23-.28.24-.278.23-.276.24-.276.23-.273.24-.272.23-.271.23-.27.24-.266.23-.265.24-.264.23-.263.22-.246.23-.25.23-.248.24-.251.23-.251.24-.252.25-.252.24-.253.25-.253.25-.254.25-.254.26-.254.25-.255.26-.255.26-.254.27-.255.26-.254.27-.254.26-.254.27-.253.27-.253.27-.252.27-.252.27-.251.27-.25.27-.25.28-.246.27-.247.27-.246.27-.244.27-.242.27-.242.28-.24.26-.237.27-.236.27-.234.27-.232.26-.23.27-.228.26-.225.26-.223.26-.22.26-.218.25-.215.26-.213.25-.21.24-.206.25-.203.24-.2.24-.197.24-.194.24-.19.23-.187.23-.183.22-.18.23-.175.22-.171.21-.168.21-.164.21-.16.21-.155.2-.151.19-.147.21-.151.16-.113.17-.117.18-.115.18-.111.18-.108.18-.105.18-.103.18-.1.19-.098.18-.096.19-.093.19-.091.19-.09.19-.086.19-.085.2-.083.19-.08.2-.08.2-.075.2-.074.2-.072.21-.07.2-.067.21-.065.2-.062.21-.06.21-.058.22-.055.21-.053.21-.05.22-.047.22-.044.22-.041.22-.037.22-.035.23-.031.23-.028.23-.023.23-.02.23-.015.24-.011.24-.007.23-.001.13.002.13.003.12.005.12.006.13.007.13.009.13.01.12.014.13.015.14.016.13.019.13.02.13.024.14.025.13.028.14.03.14.033.14.036.14.039.14.04.14.046.15.048.14.052.15.055.15.06.14.063.15.067.15.07.15.077.15.08.15.085.15.09.15.094.15.1.15.105.14.11.15.116.15.12.14.127.14.13.14.138.14.147.14.159.14.164.14.165.12.164.11.162.11.162.1.16.1.159.09.157.08.155.08.154.07.15.07.15.07.149.06.146.06.145.05.143.05.14.05.14.05.14.04.137.04.137.04.135.04.134.04.133.03.132.04.13.03.13.03.13.02.13.03.129.03.139.05.243.04.253.04.252.04.25.03.25.03.25.03.248.03.249.02.248.03.248.02.249.02.248.01.248.02.247.01.248.01.248.01.247.01.247.01.247.01.247.01.246v.245l.01.245v.249l.01.48.01.48v1.851l.01.863v.806l.01.376v.925l-.01.253-.01.274-.02.274-.02.274-.02.274-.02.275-.02.274-.02.275-.02.275-.03.275-.03.275-.03.275-.02.276-.04.275-.03.276-.03.276-.03.276-.04.276-.03.276-.04.276-.04.276-.04.276-.04.276-.04.28-.08.549-.08.552-.09.552-.09.55-.09.552-.09.549-.09.549-.09.547-.09.547-.19 1.082-.18 1.076-.18 1.067-.09.525-.08.522-.09.519-.08.524-.06.376-.06.39-.07.395-.07.399-.06.403-.07.408-.08.41-.07.417-.07.419-.08.426-.15.855-.17.87-.16.886-.17.898-.18.908-.18.92-.18.929-.18.938-.19.945-.2.953-.19.959-.2.963-.19.968-.2.97-.2.974-.21.974-.2.975-.2.973-.2.973-.41 1.932-.37 1.79-.03.123-.51 1.855-.5 1.823-.14.482-.13.485-.14.487-.13.487-.14.487-.14.489-.14.489-.14.492-.29.978-.29.983-.29.985-.29.987-.3.989-.3.989-.31.992-.3.992-.31.993-.31.993-.32.994-.31.994-.32.998-.32.99-.32.99-.32 1-.32.99-.32.99-.33.99-.32.99-.33.99-.32.98-.65 1.96-.65 1.96-.65 1.94-.38 1.12-.38 1.15-.39 1.16-.41 1.19-.41 1.2-.42 1.23-.42 1.23-.43 1.25-.43 1.26-.44 1.27-.45 1.28-.45 1.29-.45 1.29-.45 1.3-.45 1.3-.46 1.29-.46 1.3-.45 1.3-.91 2.57-.9 2.54-.89 2.5-.86 2.44-.85 2.37-.81 2.28-.79 2.2-.33.92-.34.93-.34.93-.33.93-.34.92-.35.92-.34.93-.34.92-.34.91-.35.92-.68 1.83-.69 1.82-.68 1.82-.68 1.81-.68 1.81-.34.9-.33.9-.34.89-.33.9-.33.9-.33.89-.33.89-.32.9-.32.89-.32.89-.32.88-.31.89-.31.88-.31.89-.31.89-.3.89-.31.9-.3.9-.31.9-.3.91-.3.9-.3.91-.31.91-.3.91-.6 1.83-.6 1.83-.6 1.84-.6 1.83-.53 1.61-.08.22-.35.91-.34.9-.34.9-.34.9-.34.9-.35.89-.34.9-.35.89-.35.89-.34.88-.34.86-.34.86-.35.87-.34.87-.35.87-.35.88-.36.87-.35.88-.36.89-.36.88-.72 1.76-.71 1.75-.71 1.74-.71 1.73-.7 1.7-1.36 3.3-.65 1.6-.63 1.55-.61 1.49-.59 1.45-.25.61-.25.62-.26.63-.26.62-.26.62-.27.63-.26.62-.27.62-.52 1.23-.53 1.22-.52 1.21-.25.6-.25.59-.25.59-.24.58-.24.57-.24.57-.23.56-.22.55-.11.27-.1.27-.11.27-.1.26-.1.27-.1.26-.1.25-.09.26-.1.25-.09.25-.09.24-.08.24-.09.24-.08.23-.08.23-.07.23-.08.22-.07.22-.07.21-.07.24-.13.44-.15.46-.14.46-.15.45-.14.46-.15.46-.29.89-.29.89-.14.44-.15.44-.13.42-.14.43-.13.42-.13.41-.13.41-.12.4-.12.4-.05.19-.06.19-.05.19-.05.19-.05.19-.05.18-.05.18-.05.17-.04.18-.05.17-.04.17-.04.16-.04.17-.03.16-.04.15-.03.15-.03.15-.03.15-.03.14-.02.13-.03.13-.02.13-.02.12-.02.12-.01.11-.01.08.12-.09.18-.12.17-.12.18-.13.19-.14.19-.14.19-.14.19-.15.2-.15.2-.15.2-.16.21-.16.21-.17.21-.17.21-.17.22-.17.22-.18.22-.18.22-.19.22-.18.22-.19.23-.19.22-.2.23-.19.23-.2.23-.2.23-.2.23-.21.23-.2.23-.21.23-.21.23-.21.23-.21.23-.21.23-.21.23-.22.23-.21.23-.22.23-.21.23-.22.23-.22.23-.21.22-.22.23-.22.22-.21.22-.22.22-.22h.01l.22-.2.23-.21.22-.21.23-.21.22-.2.22-.2.21-.21.22-.2.21-.2.21-.2.21-.2.2-.2.31-.3.32-.32.33-.33.34-.33.34-.35.35-.35.36-.37.37-.37.37-.38.37-.39.38-.4.39-.4.39-.42.4-.42.4-.42.41-.43.41-.44.41-.45.42-.45.42-.45.43-.46.42-.47.87-.94.87-.96.88-.97.89-.99.88-.99.89-1 .9-1 .89-1.01.88-1.01.88-1 .88-1.01.87-.99.85-.99.85-.98.83-.96.82-.95.8-.94 1.54-1.8 1.46-1.72.46-.54.15-.19.58-.75.58-.75.58-.74.58-.75.57-.75.58-.75.57-.75.57-.75.57-.74.57-.75.57-.75.57-.75.56-.75.57-.75.56-.75.56-.75.57-.75.56-.76.56-.75 1.12-1.51 1.12-1.51 1.12-1.51 1.13-1.52 1.12-1.52 1.12-1.53 1.11-1.52 1.12-1.53.56-.76.56-.76.55-.77.56-.77.56-.76.55-.77.56-.77.55-.77.55-.77.55-.77.56-.77.54-.77.55-.77.55-.78.54-.77.55-.78.54-.77.54-.78.53-.77.54-.78.53-.77.53-.78.53-.78.53-.78.52-.77.52-.78.52-.78.52-.78.55-.84.57-.84.56-.85.58-.85.57-.85.59-.86.58-.86.59-.86.59-.86.6-.87.6-.86.59-.87.61-.87.6-.87 1.21-1.74 1.22-1.75 1.21-1.75 1.21-1.74.61-.87.6-.88.6-.87.6-.87.59-.86.6-.87.59-.86.58-.86.58-.86.58-.86 1.31-1.95 1.37-2.03 1.41-2.09 1.44-2.14 2.97-4.39 3-4.45 2.97-4.39 2.86-4.25 2.7-4 1.26-1.87.1-.14 1.09-1.63.46-.68.46-.69.46-.7.47-.71.48-.72.48-.73.48-.74.49-.75.49-.74.48-.76.49-.75.49-.75.97-1.51.96-1.49.95-1.47.92-1.44 1.74-2.73.82-1.28.77-1.203.72-1.12.65-1.02.18-.277.17-.273.18-.275.17-.276.18-.277.17-.277.34-.564.35-.566.35-.57.7-1.155.35-.581.36-.585.35-.588.37-.588.18-.298.18-.296.19-.297.19-.297.19-.297.19-.297.19-.298.19-.29.26-.406.27-.422.28-.444.3-.464.3-.482.31-.5.32-.514.33-.53.33-.54.34-.551.69-1.131.71-1.155.72-1.171.72-1.172.36-.586.36-.581.36-.577.35-.571.36-.564.35-.555.34-.545.35-.535.33-.522.33-.507.17-.251.16-.246.16-.242.16-.237.15-.234.16-.23.15-.224.15-.22.21-.302.21-.303.22-.305.21-.306.22-.308.22-.308.22-.31.22-.308.23-.31.22-.31.23-.31.23-.308.23-.308.24-.307.23-.307.23-.305.24-.303.24-.302.24-.3.24-.297.24-.296.24-.292.24-.291.25-.287.24-.284.25-.281.24-.273.13-.141.12-.137.13-.135.12-.134.13-.134.13-.133.12-.131.13-.13.13-.13.13-.138.15-.141.15-.148.16-.145.16-.143.16-.141.17-.14.16-.14.17-.138.18-.138.17-.14.18-.137.18-.138.19-.14.19-.138.19-.14.19-.138.19-.14.2-.14.2-.14.21-.138.2-.14.21-.14.21-.14.21-.14.21-.138.22-.14.21-.138.22-.138.22-.137.21-.137.23-.136.22-.136.22-.134.22-.134.22-.132.22-.131.22-.13.22-.13.23-.126.22-.126.22-.124.21-.123.22-.12.22-.12.22-.116.21-.115.22-.113.21-.11.21-.11.21-.105.21-.103.2-.102.21-.098.2-.096.2-.094.2-.091.2-.088.2-.086.2-.082.19-.08.2-.078.2-.074.19-.072.19-.064.28-.09.26-.086.27-.086.28-.086.27-.086.29-.087.28-.086.3-.086.29-.086.3-.086.31-.086.3-.086.32-.086.31-.085.32-.086.32-.085.32-.085.32-.085.33-.084.33-.084.34-.084.33-.083.34-.083.33-.082.34-.082.34-.081.34-.08.35-.08.34-.08.34-.077.35-.078.34-.076.34-.076.35-.075.34-.073.35-.073.34-.072.34-.071.34-.07.34-.067.34-.067.33-.066.34-.065.33-.063.33-.061.33-.061.32-.06.33-.056.32-.055.31-.054.32-.053.31-.051.31-.05.3-.046.3-.045.3-.043.29-.042.29-.04.29-.037.28-.035.28-.034.27-.031.27-.03.26-.025.7-.067.71-.065.71-.065.72-.062.72-.061.73-.06.74-.058.75-.056.76-.055.76-.053.77-.052.79-.05.79-.047.8-.046.82-.043.82-.042.84-.04.85-.038.86-.036.87-.034.89-.031.9-.03.91-.026.93-.025.95-.023.96-.02.97-.017.99-.015 1-.013 1.03-.01 1.04-.007 1.05-.005.98-.002h.98l.98.002.98.004.98.005.98.008.97.009.98.01.97.014.98.014.97.015.97.017.98.018.97.02.97.02.97.022.97.022.97.024.97.024.97.026 1.93.052 1.94.055 1.94.057 1.93.057 3.87.118.52.016.52.017.53.018.53.02.53.02.53.022.54.022.54.024 1.09.049 1.1.053 1.1.056 1.11.058 1.12.06 1.12.064 1.12.064 1.13.067 1.12.067 1.13.069 2.24.139 2.22.14 2.2.138 2.15.135 1.06.065 1.05.063 1.03.06 1.01.06 1 .057.98.053.95.05.94.048.91.043.45.02.44.019.38.017.37.017.38.02.37.02.38.022.37.022.38.024.37.025.37.025.37.027.38.028.37.029.37.029.37.03.37.032.37.032.73.065.73.069.74.07.73.074.73.075.72.077.73.078.72.079.72.079.72.08 1.44.16 1.43.16.71.08.71.078.71.076.71.075.71.073.7.072.71.069.71.066.7.064.35.03.35.03.93.078.96.079.99.08 1.01.082.02.002 1.01.08 1.05.083 2.17.169 2.24.17 2.29.174 2.34.174 2.37.176 2.39.175 2.4.174 2.39.174 2.38.17 4.66.335 4.45.319 1.04.076 1.05.078 1.07.08 1.07.083 1.07.085 1.08.088 1.09.089 1.09.09 1.09.093 1.09.095 1.1.096 1.09.098 1.09.099 1.09.1 1.09.102 1.08.103 1.08.105 1.07.105 1.07.106 1.06.107 1.04.107 1.04.108 1.03.109 1.02.109 1.01.11.99.11.98.11.96.11.95.11.93.112.92.11.89.109.71.087.7.084.71.08.7.079.7.077.7.073.7.072.7.07.7.069.7.066.7.066.7.064.71.063.7.062.7.06.7.06 1.41.12 1.41.119 1.42.119 1.43.12 1.43.125.73.063.72.065.72.066.73.067.73.07.73.07 2.36.229 2.59.248 1.37.13 1.43.136 1.47.138 1.5.14 1.55.145 1.57.145 1.61.148 1.62.148 1.65.15 1.66.149 1.67.15 1.67.149 1.68.148 1.67.146 1.67.145 1.66.142 1.64.14 1.62.136 1.6.133 1.57.129 1.54.124 1.5.12 1.46.113 1.42.108 1.36.102 1.32.095.63.045.62.043.6.04.59.04.85.057.85.058.85.059.85.06.85.06.85.063 1.69.124 3.38.25 1.69.124.84.06.84.062.84.059.84.058.84.057.84.056.84.054.84.053.83.05.84.05.83.047.83.045.84.042.83.04.83.038.83.034.83.032.42.015.41.014 1.88.063 1.95.067 4.04.139 4.18.144 2.12.07 2.12.07 2.12.07 2.1.065 1.04.032 1.04.03 1.02.03 1.02.028 1.01.027.99.026.98.024.96.023.95.02.93.02.92.018.89.016.38.006.37.005.38.003.38.003.38.002h1.13l.37-.002.38-.002.38-.003.37-.005.38-.004.37-.006.76-.013.75-.016.75-.018.75-.021.76-.022.75-.025.76-.026.75-.027.76-.028.76-.03.76-.03 1.53-.061 1.53-.062 1.54-.061.77-.03.78-.028.78-.027.78-.026.79-.024.78-.022.79-.02.79-.018.78-.017.77-.02.79-.023.78-.026.8-.03.8-.03.8-.033.8-.036.81-.04.81-.04.8-.043.81-.045.81-.048.81-.05.8-.051.81-.054.79-.055.8-.058.79-.06.78-.06.78-.063.77-.064.77-.066.75-.067.75-.068.73-.07.73-.072.71-.072.71-.073.69-.075.67-.075.67-.077.58-.067.58-.065.59-.063.59-.062.58-.061.59-.06 1.17-.115 1.17-.115 1.17-.115.58-.06.58-.058.57-.06.58-.061.57-.063.57-.065.57-.066.56-.07.57-.07.27-.036.28-.037.28-.037.28-.04.27-.038.28-.04.27-.04.27-.042.27-.042.28-.043.26-.044.27-.045.27-.045.27-.047.26-.047.26-.05.27-.048.26-.051.26-.051.25-.053.26-.054.26-.055.27-.06.28-.062.28-.063.29-.065.28-.066.29-.067.29-.07.29-.07.29-.071.3-.072.3-.074.29-.074.61-.154.61-.157.61-.162.61-.164.62-.168.62-.171.61-.174.62-.176.62-.178.61-.18.62-.181.61-.182.6-.184.6-.184.59-.184.59-.184.58-.184.57-.183.56-.183.56-.181.54-.18.53-.178.51-.176.5-.173.49-.17.47-.166.18-.062.17-.066.19-.071.2-.075.2-.08.22-.083.22-.088.22-.092.24-.095.23-.098.25-.102.25-.105.25-.108.26-.11.53-.23.54-.237.55-.245.56-.251.57-.256.57-.26.57-.262.58-.264.56-.264.57-.263.55-.26.54-.256.53-.252.52-.246.5-.24.47-.23.46-.22.84-.407.73-.355.59-.291.45-.223.01-.005 3.54-.234 2.68 2.327.01.018.23 3.542-2.33 2.679-.01.005-.46.23-.62.304-.75.366-.87.418-.47.226-.49.236-.51.244-.53.252-.55.258-.56.264-.57.267-.58.27-.59.272-.59.272-.6.272-.59.27-.6.268-.59.264-.59.259-.58.253-.56.244-.29.12-.28.119-.27.116-.27.113-.27.11-.27.109-.26.105-.26.102-.25.1-.25.097-.25.093-.24.09-.24.088-.23.082-.51.18-.52.183-.54.184-.55.185-.56.188-.57.189-.59.19-.59.19-.6.193-.61.192-.61.192-.63.192-.63.192-.63.19-.64.192-.64.189-.65.187-.65.186-.65.184-.65.182-.65.179-.65.176-.65.174-.65.17-.65.166-.64.162-.32.08-.32.079-.32.078-.32.076-.31.075-.32.074-.31.073-.31.072-.31.07-.31.069-.31.068-.3.066-.3.064-.31.063-.3.06-.3.06-.31.059-.3.057-.3.056-.31.054-.3.053-.31.05-.3.05-.31.05-.3.048-.3.047-.31.046-.3.044-.31.044-.3.042-.3.042-.31.04-.3.04-.31.04-.6.075-.61.072-.6.07-.6.067-.61.065-.6.063-.59.062-.6.06-.59.058-1.18.115-1.17.113-1.16.113-.57.056-.56.058-.57.058-.56.06-.55.06-.56.064-.69.078-.71.078-.72.077-.73.075-.75.074-.75.073-.76.07-.78.07-.78.069-.79.067-.8.065-.8.063-.81.062-.81.059-.82.058-.83.056-.82.054-.83.052-.83.05-.84.048-.83.045-.84.043-.83.04-.83.039-.83.036-.83.034-.83.03-.82.028-.82.026-.81.022-.81.02-.79.017-.77.016-.77.018-.76.02-.77.022-.76.024-.76.026-.76.026-.77.028-1.53.058-1.52.059-1.53.059-.77.029-.77.029-.77.027-.77.027-.77.025-.78.024-.77.022-.78.019-.78.018-.78.015-.79.013-.39.005-.4.005-.39.003-.4.003-.39.002h-1.2l-.39-.001-.41-.002-.4-.004-.4-.005-.4-.005-.4-.007-.91-.018-.93-.02-.94-.02-.96-.023-.98-.025-.99-.026-1-.028-1.02-.03-1.02-.03-1.04-.031-1.04-.032-1.05-.033-2.11-.07-2.13-.072-2.12-.074-2.13-.075-4.18-.15-4.04-.146-1.94-.07-1.88-.066-.43-.015-.43-.016-.86-.035-.86-.037-.86-.04-.86-.043-.86-.045-.85-.048-.86-.05-.86-.051-.85-.053-.86-.055-.85-.057-.85-.058-.86-.06-.85-.06-.85-.061-.85-.062-.85-.063-1.69-.127-3.38-.256-1.69-.127-.84-.062-.84-.062-.84-.061-.83-.06-.84-.058-.84-.057-.6-.041-.62-.043-.63-.045-.65-.047-1.32-.098-1.39-.105-1.43-.112-1.47-.117-1.52-.123-1.55-.128-1.58-.132-1.61-.136-1.63-.14-1.65-.143-1.66-.145-1.68-.148-1.68-.15-1.68-.152-1.68-.152-1.68-.152-1.66-.153-1.65-.153-1.63-.151-1.61-.151-1.58-.148-1.55-.147-1.51-.144-1.47-.141-1.43-.137-1.38-.134-2.6-.254-2.35-.232-.72-.071-.72-.068-.71-.067-.71-.066-.71-.065-.71-.063-1.42-.125-1.42-.122-1.41-.121-1.42-.121-1.42-.123-.71-.062-.71-.063-.71-.065-.72-.065-.71-.066-.72-.068-.72-.07-.72-.072-.72-.073-.73-.075-.72-.078-.73-.08-.73-.083-.74-.086-.73-.088-.74-.091-.88-.11-.89-.11-.92-.11-.93-.11-.94-.11-.96-.11-.98-.11-.99-.108-1.01-.11-1.01-.108-1.03-.11-1.03-.107-1.05-.107-1.05-.106-1.06-.106-1.06-.104-1.07-.104-1.08-.102-1.08-.101-1.08-.1-1.08-.098-1.08-.097-1.08-.095-1.08-.094-1.07-.091-1.07-.09-1.07-.088-1.06-.085-1.06-.084-1.05-.081-1.04-.08-1.03-.075-4.44-.326-4.67-.342-2.37-.175-2.4-.177-2.4-.18-2.4-.178-2.37-.18-2.34-.178-2.3-.177-2.25-.176-2.18-.172-1.06-.086-1.02-.082-.02-.002-1.02-.083-.99-.082-.97-.081-.94-.08-.37-.032-.38-.033-.73-.067-.74-.071-.73-.072-.73-.075-.73-.076-.73-.078-.72-.08-.73-.08-.72-.08-1.44-.162-1.43-.162-.71-.081-.71-.08-.71-.077-.71-.077-.71-.076-.71-.073-.7-.072-.7-.07-.71-.065-.7-.064-.35-.031-.35-.03-.35-.03-.34-.027-.35-.027-.35-.027-.35-.025-.35-.025-.35-.023-.35-.023-.34-.021-.35-.02-.35-.02-.34-.018-.35-.017-.35-.016-.45-.02-.47-.021-.93-.046-.96-.05-.98-.051-.99-.056-1.02-.058-1.02-.061-1.05-.063-1.05-.066-1.07-.066-2.16-.138-2.19-.141-2.22-.142-2.23-.141-1.12-.07-1.12-.068-1.11-.067-1.11-.065-1.11-.064-1.1-.061-1.09-.06-1.09-.055-1.07-.053-1.07-.05-.53-.023-.52-.022-.52-.022-.52-.02-.51-.02-.51-.018-.51-.018-.5-.016-3.87-.121-1.93-.06-1.93-.06-1.92-.056-1.93-.054-.96-.027-.96-.025-.96-.024-.96-.024-.97-.023-.96-.021-.96-.02-.96-.02-.96-.017-.96-.016-.96-.015-.96-.014-.96-.012-.96-.01-.96-.01-.97-.005-.96-.005-.96-.003-.96-.001h-.96l-1.04.004-1.01.006-1 .009-.99.01-.96.015-.95.016-.93.018-.92.02-.91.024-.88.025-.88.027-.86.03-.85.032-.83.033-.82.036-.81.038-.8.039-.79.042-.78.043-.76.045-.76.047-.75.049-.73.05-.73.053-.73.053-.71.055-.7.057-.7.058-.7.06-.69.06-.68.064-.67.063-.21.02-.21.023-.22.025-.23.027-.23.029-.24.03-.25.035-.25.035-.26.038-.26.039-.27.042-.28.043-.28.045-.28.047-.29.049-.29.05-.3.052-.3.054-.3.055-.3.056-.31.058-.31.06-.31.06-.32.063-.31.063-.32.065-.32.065-.32.067-.32.068-.32.069-.33.07-.32.07-.33.072-.32.072-.32.074-.32.073-.32.075-.33.075-.31.076-.32.076-.32.077-.31.077-.32.077-.31.078-.3.078-.31.078-.3.078-.3.079-.3.078-.29.078-.29.079-.28.078-.28.078-.28.077-.27.078-.26.077-.26.076-.26.076-.25.075-.24.075-.24.074-.23.073-.22.072-.2.066-.08.026-.07.025-.08.033-.1.036-.1.043-.11.046-.12.05-.13.057-.13.06-.14.065-.15.069-.15.072-.15.076-.16.079-.17.083-.16.086-.17.088-.18.092-.17.094-.18.097-.19.099-.18.1-.18.105-.19.105-.19.107-.19.109-.19.11-.19.112-.19.114-.2.114-.19.115-.19.116-.19.117-.19.118-.19.118-.19.118-.18.119-.19.119-.18.118-.18.119-.18.118-.18.117-.17.117-.17.116-.17.115-.16.114-.17.112-.15.11-.15.11-.15.107-.14.105-.14.103-.13.1-.13.097-.12.094-.11.09-.1.086-.1.082-.1.079-.08.069-.07.068-.06.056-.06.052-.05.049-.08.083-.09.093-.1.096-.09.098-.09.1-.1.1-.1.104-.09.105-.1.107-.1.105-.2.225-.2.227-.2.233-.2.238-.21.244-.2.248-.21.253-.21.258-.21.26-.2.266-.21.268-.21.272-.21.274-.21.277-.21.279-.21.28-.21.284-.21.284-.21.286-.21.287-.2.287-.21.288-.2.287-.2.288-.21.288-.19.287-.2.284-.14.193-.13.197-.14.204-.14.21-.14.215-.15.22-.15.226-.15.229-.31.478-.32.493-.33.508-.33.523-.34.535-.34.546-.35.556-.35.564-.35.57-.36.575-.71 1.16-.72 1.165-.71 1.156-.7 1.137-.34.558-.34.55-.34.54-.32.528-.33.516-.31.502-.31.487-.3.47-.29.456-.28.427-.18.278-.18.27-.17.272-.18.273-.17.275-.17.277-.18.278-.17.277-.35.564-.35.567-.34.57-.35.577-.71 1.16-.36.586-.35.588-.37.59-.18.3-.19.29-.19.3-.18.29-.19.3-.19.29-.66 1.02-.71 1.11-.77 1.2-.82 1.27-1.75 2.74-.92 1.44-.95 1.48-.97 1.5-.98 1.51-.49.76-.5.76-.49.76-.5.76-.49.75-.49.75-.49.74-.48.73-.48.73-.48.71-.47.71-.46.68-1.1 1.64-.1.14-1.26 1.88-2.7 4-2.87 4.25-2.97 4.39-3 4.44-2.96 4.39-1.44 2.14-1.41 2.09-1.36 2.03-1.31 1.95-.59.87-.59.87-.6.87-.59.88-.6.88-.61.87-.6.88-.61.88-.6.88-.61.88-1.22 1.75-1.21 1.75-1.22 1.74-1.21 1.74-.6.87-.6.86-.59.87-.59.85-.59.86-.59.85-.58.85-.58.85-.57.84-.57.84-.56.83-.55.83-.55.83-.55.82-.53.8-.53.79-.53.8-.54.8-.53.79-.54.79-.54.79-.55.8-.54.79-.55.79-.55.79-.55.78-.55.79-.55.79-.56.78-.55.79-.56.78-.56.78-.56.78-.56.78-.55.78-.56.77-.57.78-.56.77-.56.78-.56.77-.56.77-.57.77-1.12 1.53-1.12 1.53-1.13 1.53-1.12 1.53-1.13 1.53-1.12 1.52-1.13 1.52-1.13 1.52-.57.76-.56.76-.57.75-.57.76-.57.76-.57.76-.57.75-.57.76-.58.76-.57.75-.58.76-.58.76-.58.75-.58.76-.58.76-.58.75-.59.76-.59.76-.59.76-.14.19-.43.58-1.32 1.84-1.39 1.94-.72 1-.74 1.02-.74 1.04-.76 1.06-.77 1.06-.78 1.08-.78 1.09-.79 1.1-.79 1.09-.8 1.1-.8 1.1-.79 1.1-.79 1.09-.8 1.09-.78 1.07-.78 1.07-.77 1.05-.39.52-.38.51-.38.51-.37.51-.37.5-.37.5-.37.49-.36.48-.36.48-.36.47-.35.47-.35.46-.34.45-.35.44-.33.44-.33.43-.33.42-.32.41-.32.41-.32.39-.3.39-.31.37-.2.25-.2.25-.21.26-.21.25-.21.25-.21.26-.21.25-.22.26-.21.26-.22.25-.22.26-.22.26-.24.25-.23.25-.24.26-.23.25-.24.25-.24.25-.24.25-.24.25-.24.25-.24.26-.25.25-.24.25-.25.24-.24.25-.25.25-.24.25-.25.24-.25.25-.24.24-.25.24-.25.24-.25.24-.24.24-.25.24-.25.23-.25.23-.24.24-.25.23-.25.22-.24.23-.25.22-.24.23-.25.21-.24.22-.25.22-.24.21-.24.21-.25.21-.24.2-.24.2-.24.2-.24.2-.24.19-.24.19-.24.19-.23.19-.24.18-.24.18-.24.18-.24.17-.23.17-.25.17-.2.14-.2.13-.21.14-.21.13-.21.13-.21.13-.21.12-.21.13-.22.12-.22.13-.22.12-.23.12-.23.13-.23.12-.23.12-.23.12-.24.12-.23.12-.24.11-.24.12-.25.11-.24.12-.25.11-.25.11-.25.12-.25.1-.25.11-.25.11-.26.11-.25.1-.26.1-.26.1-.25.1-.26.1-.26.09-.27.09-.26.1-.26.08-.26.09-.27.08-.27.08-.26.08-.28.07-.27.08-.28.07-.28.06-.28.06-.28.06-.16.03-.15.02-.15.03-.16.02-.15.02-.16.02-.16.02-.17.02-.16.01-.18.02-.17.01-.18.01h-.78l-.2-.01-.22-.02-.22-.02-.24-.02-.24-.04-.25-.04-.26-.05-.28-.06-.28-.08-.3-.09-.31-.1-.32-.13-.33-.14-.34-.17-.35-.2-.36-.22-.34-.24-.33-.26-.31-.27-.29-.28-.26-.28-.25-.28-.22-.29-.2-.28-.19-.28-.17-.28-.15-.27-.13-.26-.12-.26-.11-.25-.1-.24-.08-.24-.08-.23-.07-.22-.06-.22-.06-.21-.04-.2-.05-.2-.03-.19-.04-.19-.03-.18-.02-.18-.03-.17-.02-.17-.01-.17-.02-.16-.01-.16-.01-.16-.01-.15v-.17l-.01-.27-.01-.29.01-.28v-.27l.01-.27.01-.26.01-.26.02-.26.02-.25.02-.25.03-.24.02-.24.03-.24.02-.24.03-.24.03-.23.03-.24.03-.23.03-.23.06-.44.07-.44.06-.43.06-.42.12-.8.05-.37.05-.36.04-.34.02-.15.02-.15.02-.15.01-.13.01-.13.01-.11.01-.11.01-.14-.01.08.01-.12.01-.12.01-.23.02-.27.03-.26.02-.27.03-.26.03-.27.04-.26.03-.26.04-.26.04-.26.03-.25.05-.26.04-.26.04-.25.05-.26.05-.25.05-.25.05-.26.05-.25.05-.25.05-.25.06-.25.05-.25.06-.25.05-.25.06-.25.12-.49.11-.49.13-.49.12-.48.12-.48.12-.48.13-.48.12-.47.12-.46.25-.91.23-.9.12-.43.11-.43.1-.42.11-.42.1-.4.1-.42.07-.28.08-.31.08-.31.08-.31.09-.31.09-.31.08-.31.09-.31.09-.31.1-.32.09-.31.1-.31.1-.32.1-.31.09-.32.11-.31.1-.32.1-.31.11-.32.1-.32.21-.63.22-.64.22-.63.22-.64.23-.64.22-.63.23-.64.23-.64.45-1.26.46-1.26.45-1.24.22-.62.21-.61.22-.6.21-.6.21-.6.2-.58.2-.58.19-.58.5-1.49.53-1.55.54-1.6.55-1.64 1.16-3.38.58-1.74.6-1.75.6-1.77.59-1.78.6-1.78.3-.89.29-.89.3-.88.29-.88.29-.88.28-.87.29-.87.28-.86.27-.86.27-.84.28-.87.27-.88.28-.87.28-.89.27-.88.28-.89.27-.9.28-.9.27-.91.27-.9.07-.22.56-1.59.62-1.81.64-1.82.64-1.84.64-1.83.32-.93.32-.92.33-.92.33-.93.32-.92.33-.93.33-.92.34-.93.33-.92.34-.92.34-.93.34-.92.35-.93.34-.92.35-.92.35-.92.36-.92.35-.92.35-.92.36-.91.35-.91.36-.92.36-.91.36-.91.72-1.81.71-1.81.72-1.8.71-1.8.71-1.8.35-.9.36-.89.35-.9.35-.89.34-.89.35-.9.34-.89.34-.89.34-.89.34-.89.82-2.16.85-2.26.88-2.34.9-2.42.92-2.47.94-2.51.95-2.54.47-1.27.48-1.28.47-1.28.47-1.28.47-1.28.47-1.27.46-1.27.47-1.26.45-1.25.45-1.24.45-1.22.44-1.21.43-1.2.42-1.18.41-1.16.41-1.13.39-1.12.39-1.09.68-1.92.67-1.92.68-1.94.33-.96.34-.97.34-.97.33-.963.34-.967.33-.967.33-.966.33-.965.32-.964.33-.962.32-.961.32-.96.32-.957.31-.955.31-.952.31-.95.31-.946.3-.944.29-.94.3-.936.29-.932.29-.932.14-.46.14-.46.14-.46.13-.46.14-.457.14-.456.13-.455.13-.457.53-1.803.54-1.836.03-.12.61-1.707.66-1.843.32-.921.33-.924.32-.924.33-.923.32-.921.31-.917.32-.913.31-.908.31-.903.3-.894.3-.887.29-.878.29-.868.28-.856.27-.844.27-.83.26-.817.25-.8.24-.788.12-.382.12-.381.11-.376.11-.371.11-.366.11-.361.1-.355.1-.35.1-.344.1-.348.15-.532.15-.54.15-.537.16-.537.31-1.06.3-1.052.3-1.042.15-.513.15-.511.14-.506.15-.502.13-.498.14-.492.13-.488.13-.482.13-.48.06-.232.06-.234.06-.233.05-.231.06-.23.06-.226.05-.226.05-.224.05-.222.05-.22.05-.218.05-.216.04-.214.05-.212.04-.21.04-.206.04-.205.04-.203.04-.2.03-.198.04-.195.03-.192.03-.19.02-.172.01-.015.03-.183.03-.2.07-.388.06-.413.07-.416.06-.42.15-.845.06-.424.07-.423.07-.423.07-.42.06-.414.06-.415.03-.198.03-.2.02-.2.03-.194.02-.193.03-.191.02-.187.02-.183.02-.181.02-.176.01-.172.02-.168.01-.126-.02.004.02-.006v-.003l-.09.023-.12.033.05-.02-.12.036-.12.035.05-.021-.12.037-.11.038.05-.023-.11.039-.12.039.06-.025-.11.04-.11.04.06-.026-.11.04-.1.043.06-.031-.1.042-.09.043.06-.035-.09.042-.09.042.07-.04-.12.063.07-.043-.09.049-.16.089-.18.1-.19.107-.19.11-.19.116-.2.12-.21.125-.21.128-.22.133-.22.137-.23.14-.23.144-.23.148-.24.152-.24.155-.25.158-.24.16-.26.166-.25.167-.26.17-.26.174-.26.176-.26.179-.27.18-.27.185-.27.186-.27.189-.27.19-.27.193-.28.194-.27.196-.28.199-.28.199-.28.202-.27.203-.28.204-.28.205-.28.207-.27.208-.28.209-.27.209-.28.21-.27.212-.27.21-.27.214-.27.212-.27.213-.27.213-.26.213-.26.212-.26.213-.25.212-.26.212-.25.212-.24.21-.25.21-.24.21-.23.208-.24.207-.23.206-.22.204-.22.203-.22.2-.21.202-.23.223-.24.227-.24.23-.23.232-.24.234-.24.237-.24.238-.23.24-.24.244-.24.245-.24.247-.24.249-.25.25-.24.254-.24.254-.24.257-.24.258-.24.26-.24.26-.25.264-.24.264-.24.266-.24.268-.24.267-.49.543-.48.546-.49.552-.48.555-.48.559-.48.563-.49.566-.48.569-.48.57-.47.575-.48.575-.47.576-.47.577-.47.578-.47.579-.47.578-.37.462-.09.117-.45.586-.89 1.168-2.2 2.894-1.17 1.53-1.19 1.579-1.22 1.618-.62.82-.62.828-.63.834-.63.839-.63.844-.62.846-.63.849-.63.85-.63.85-.62.85-.62.85-.61.846-.61.842-.6.839-.59.833-.59.827-.29.41-.29.409-.28.406-.28.405-.28.402-.28.4-.27.397-.28.394-.26.39-.27.39-.26.385-.26.384-.95 1.42-.95 1.42-.95 1.419-.95 1.419-.94 1.418-.47.709-.47.709-.46.709-.47.71-.47.71-.46.71-.46.71-.46.713-.47.712-.45.712-.46.713-.46.714-.45.715-.46.714-.45.72-.46.72-.45.72-.44.72-.45.72-.45.72-.44.72-.45.73-.46.75-.47.76-.47.78-.48.78-.49.78-.49.8-.5.79-.49.81-.51.8-.5.81-1.01 1.61-1.01 1.62-1 1.6-1 1.59-.97 1.56-1.89 3.01-1.76 2.82-.82 1.31-.77 1.24-.14.22-.13.21-.13.22-.13.21-.13.22-.13.22-.12.22-.13.22-.13.22-.13.22-.25.45-.26.45-.25.46-.25.46-.25.46-.26.47-.25.47-.51.94-.52.95-.26.49-.27.48-.26.48-.27.49-.28.49-.27.49-.15.24-.14.25-.14.24-.14.25-.15.25-.15.24-.14.25-.15.24-.15.25-.15.25-.16.24-.15.25-.16.24-.16.25-.16.25-.16.24-.16.25-.17.24-.17.25-.16.23-.09.13-.08.12-.17.27-.19.28-.19.29-.19.31-.21.32-.21.34-.22.35-.22.37-.23.37-.24.39-.23.4-.25.41-.24.41-.26.43-.25.43-.26.44-.26.45-.53.91-.54.94-.55.95-1.12 1.94-.56.97-.57.98-.56.97-.57.97-.28.48-.28.47-.27.48-.28.46-.28.47-.27.45-.27.45-.27.45-.27.44-.26.43-.27.43-.26.42-.26.4-.25.41-.25.39-.25.38-.25.38-.25.36-.12.18-.12.18-.12.17-.13.18-.12.17-.12.16-.12.17-.12.17-.12.16-.12.16-.12.15-.13.16-.12.15-.12.16-.13.15-.13.15-.12.15-.14.15-.13.14-.14.15-.14.14-.13.13-.14.14-.14.12-.15.13-.14.13-.15.12-.15.12-.15.12-.16.11-.16.12-.16.11-.16.11-.17.1-.18.11-.17.1-.18.1-.19.09-.19.1-.19.09-.2.08-.21.09-.21.08-.22.07-.23.07-.24.07-.24.06-.25.05-.26.05-.27.04-.28.03-.3.02-.3.01-.31-.01-.33-.02-.33-.03-.35-.06-.31-.06-.21-.06-.18-.04-.18-.06-.19-.06-.18-.07-.18-.07-.18-.08-.19-.09-.18-.09-.18-.09-.17-.11-.18-.11-.17-.11-.17-.12-.17-.13-.16-.13-.16-.14-.16-.14-.14-.14-.15-.15-.14-.15-.13-.16-.13-.16-.12-.16-.12-.16-.11-.16-.11-.17-.1-.16-.09-.17-.09-.17-.08-.16-.08-.17-.07-.17-.07-.16-.06-.17-.06-.16-.05-.16-.05-.16-.05-.16-.04-.16-.03-.15-.04-.16-.03-.15-.02-.15-.03-.15-.02-.17-.03-.26-.03-.29-.01-.24-.01-.21v-.17l-.01-.18v-.17l-.01-.18v-.18l-.01-.36v-1.13l.01-.38.01-.4.01-.41.01-.41.02-.42.02-.43.02-.44.03-.44.02-.46.03-.46.03-.47.03-.47.03-.48.04-.49.04-.5.04-.51.04-.51.05-.52.04-.53.05-.53.05-.54.05-.55.05-.55.05-.56.06-.57.06-.57.06-.58.06-.58.06-.59.06-.6.07-.6.06-.6.07-.61.07-.61.07-.62.07-.63.08-.63.14-1.26.16-1.29.15-1.3.17-1.31.16-1.32.17-1.33.17-1.34.17-1.35.17-1.36.18-1.36.18-1.36.18-1.37.19-1.36.18-1.37.18-1.36.19-1.36.18-1.36.19-1.35.18-1.35.19-1.33.18-1.33.18-1.31.19-1.3.17-1.29.36-2.53.34-2.45.34-2.37.32-2.28.3-2.17.56-3.974.24-1.784.23-1.628.11-.852.11-.844.11-.841.1-.838.1-.836.1-.835.1-.832.1-.832.03-.32.1-.504.15-.82.15-.82.15-.82.15-.82.15-.821.29-1.648.3-1.652.29-1.66.31-1.67.15-.84.15-.844.16-.847.15-.85.16-.855.17-.86.16-.863.17-.868.17-.873.17-.868.08-.42.09-.407.16-.835.16-.841.16-.85.16-.86.15-.866.16-.873.15-.881.16-.886.15-.891.15-.896.15-.9.14-.903.15-.906.14-.908.15-.91.14-.91.13-.91.14-.91.13-.907.13-.907.13-.904.13-.902.12-.897.13-.894.11-.888.12-.883.12-.877.11-.871.11-.862.11-.855.1-.853.11-.897.11-.911.23-1.835.23-1.855.12-.93.11-.931.11-.933.11-.932.11-.931.11-.928.1-.93.05-.457.05-.46.05-.46.04-.456.05-.456.05-.454.04-.453.04-.45.04-.45.04-.445.04-.444.04-.441.04-.44.03-.435.04-.433.03-.43.03-.427.03-.424.02-.42.03-.417.02-.413.02-.408.02-.405.02-.401.01-.396.02-.391.01-.387.01-.382v-.376l.01-.371v-1.428l-.01-.342-.01-.335-.01-.336v-.154l-.01-.162-.01-.278-.01-.283-.02-.288-.01-.292-.02-.296-.02-.3-.02-.301-.02-.305-.02-.307-.02-.31-.02-.313-.03-.314-.02-.316-.03-.318-.02-.32-.03-.32-.03-.321-.03-.321-.03-.323-.03-.322-.04-.322-.03-.323-.04-.321-.03-.321-.04-.32-.04-.32-.03-.296v-.021l-.01-.32-.01-.32-.01-.316-.01-.315-.01-.312-.01-.31-.02-.307-.01-.303-.02-.3-.02-.297-.02-.292-.02-.288-.02-.284-.02-.279-.03-.273-.02-.268-.03-.263-.02-.256-.03-.25-.03-.243-.03-.236-.03-.229-.03-.22-.03-.212-.03-.204-.03-.203-.01-.085-.02-.09-.01-.089-.02-.085-.01-.083-.02-.081-.01-.077-.02-.074-.01-.072-.02-.093.02.05-.03-.09-.02-.088.02.053-.02-.085-.02-.083.02.056-.02-.079-.02-.078.03.06-.03-.073-.02-.073.03.065-.02-.068-.02-.067.04.069-.02-.062-.02-.06.05.096-.03-.072.06.115-.03-.072.06.109-.03-.072.06.105-.03-.072.06.101-.04-.073.06.097-.03-.073.06.093-.04-.073.06.089-.04-.073.06.086-.04-.073.06.082-.05-.073.06.079-.04-.074.06.076-.05-.073.06.073-.05-.073.06.07-.05-.073.05.067-.05-.073.06.065-.05-.073.05.063-.05-.073.05.06-.05-.073.05.059-.05-.073.05.057-.03-.046-.03-.046.05.053-.04-.047-.03-.047.05.05-.04-.048-.03-.048.05.046-.04-.049-.04-.049.04.044-.04-.05-.04-.05.05.041-.05-.05-.05-.051.05.04-.04-.052-.05-.051.04.038-.05-.051-.05-.052.05.036-.05-.052-.06-.051.05.034-.05-.051-.06-.051.05.032-.06-.051-.06-.051.05.031-.06-.051-.06-.05.05.029-.06-.05-.06-.05.04.029-.06-.05-.06-.05.05.028-.07-.049-.06-.049.04.027-.06-.048-.06-.048.04.026-.06-.048-.07-.047.05.025-.07-.046-.06-.046.04.024-.06-.045-.07-.045.05.024-.07-.044-.07-.044.05.023-.06-.043-.07-.042.05.023-.07-.042-.07-.041.05.022-.07-.04-.07-.039.06.021-.07-.038-.07-.038.05.021-.07-.037-.06-.036.05.02-.07-.035-.07-.035.06.02-.07-.034-.07-.032.06.019-.06-.032-.07-.031.06.018-.07-.03-.06-.029.06.018-.07-.028-.06-.027.06.017-.06-.026-.06-.025.06.016-.06-.024-.06-.023.07.015-.06-.022-.05-.017-.11.085-.12.1-.13.103-.12.107-.14.111-.13.113-.14.117-.13.12-.14.123-.15.126-.14.129-.14.129-.31.276-.3.283-.31.293-.32.304-.33.313-.32.322-.34.331-.34.339-.34.348-.35.355-.35.363-.36.369-.36.376-.36.382-.36.389-.37.394-.36.399-.37.404-.37.409-.37.413-.38.417-.37.42-.37.424-.37.427-.38.43-.37.432-.37.434-.37.436-.37.437-.36.438-.37.438-.36.44-.36.439-.36.439-.35.438-.35.438-.35.436-.34.435-.09.112-.23.336-.31.45-.3.447-.3.444-.29.44-.29.435-.29.432-.27.426-.28.42-.26.417-.27.41-.25.403-.25.398-.3.485-.31.492-.3.497-.31.5-.3.508-.31.512-.31.516-.31.52-.31.525-.32.53-.31.533-.31.538-.32.542-.32.545-.32.55-.31.552-.32.557-.32.56-.33.563-.32.565-.65 1.143-.65 1.153-.65 1.164-.66 1.173-.66 1.182-.67 1.19-1.33 2.4-1.36 2.42-.67 1.216-.69 1.218-.68 1.22-.69 1.222-.69 1.22-.69 1.22-.35.612-.35.609-.35.609-.35.608-.35.607-.35.606-.35.605-.35.604-.36.603-.35.6-.35.6-.36.599-.38.644-.38.648-.4.652-.39.656-.4.659-.39.662-.41.666-.4.668-.41.67-.41.676-.82 1.352-.84 1.36-.84 1.368-.84 1.37-.85 1.373-.85 1.373-.85 1.372-.85 1.369-.85 1.365-1.68 2.708-1.67 2.669-1.62 2.618-.8 1.283-.79 1.266-.77 1.245-.75 1.223-.74 1.199-.72 1.174-.7 1.146-.68 1.118-.33.546-.33.538-.32.53-.31.523-.31.513-.3.504-.3.495-.29.496-.18.304-.2.317-.19.319-.2.32-.21.32-.21.325-.21.325-.21.327-.22.329-.22.33-.23.332-.22.333-.23.335-.24.336-.23.338-.24.338-.24.34-.24.34-.24.343-.24.344-.49.682-.5.69-.5.69-.5.69-.99 1.38-.49.69-.49.68-.49.67-.23.34-.24.33-.23.33-.23.33-.23.33-.23.32-.22.33-.22.32-.21.31-.21.31-.21.31-.2.31-.2.3-.2.3-.13.21-.02.15-.04.28-.03.28-.03.29-.03.29-.04.29-.03.29-.02.3-.03.3-.03.31-.03.31-.02.31-.03.31-.02.31-.05.65-.05.66-.05.66-.1 1.36-.05.69-.05.7-.03.36-.03.35-.03.36-.03.36-.03.37-.04.36-.03.37-.04.37-.04.37-.04.37-.04.37-.05.38-.05.37-.05.38-.05.38-.05.39-.06.38-.06.38-.06.39-.07.39-.07.39-.07.39-.07.39-.08.39-.08.39-.05.2-.04.2-.05.2-.04.2-.05.2-.05.2-.09.38-.1.38-.09.38-.11.38-.1.37-.1.38-.11.37-.1.37-.11.37-.11.36-.11.37-.11.36-.12.36-.11.36-.12.36-.11.36-.12.35-.12.36-.12.35-.12.35-.12.35-.12.35-.24.69-.24.69-.24.68-.24.67-.24.67-.48 1.34-.23.66-.23.65-.23.66-.11.32-.12.32-.11.32-.11.33-.1.32-.11.32-.11.32-.1.32-.1.32-.1.31-.1.32-.1.32-.1.31-.09.32-.1.32-.09.31-.09.32-.08.31-.09.31-.08.32-.09.31-.08.33-.18.7-.18.72-.19.72-.19.72-.2.72-.19.72-.1.36-.1.36-.11.36-.1.36-.1.36-.1.35-.11.36-.11.36-.1.35-.11.36-.1.36-.11.35-.11.35-.11.36-.11.35-.11.35-.12.35-.11.35-.12.35-.11.35-.12.34-.11.35-.12.34-.12.35-.12.34-.12.34-.12.34-.12.34-.12.34-.13.33-.12.34-.13.33-.13.33-.12.33-.13.33-.13.33-.13.32-.13.33-.14.32-.04.09-.1.23-.14.32-.14.31-.15.31-.14.32-.15.3-.14.31-.15.31-.15.3-.15.3-.15.3-.16.3-.15.29-.38.72-.4.76-.43.8-.46.84-.47.87-.49.89-.24.46-.25.45-.26.46-.25.46-.25.45-.26.46-.25.45-.25.45-.26.45-.25.44-.25.44-.24.43-.25.42-.24.41-.24.41-.24.39-.23.39-.23.38-.22.36-.22.36-.11.16-.1.16-.11.16-.11.16-.1.16-.12.15-.11.16-.11.15-.11.15-.12.16-.11.15-.12.15-.12.16-.12.15-.12.15-.13.15-.12.16-.13.15-.13.15-.13.16-.26.3-.26.31-.27.31-.28.31-.28.31-.28.3-.29.31-.29.31-.29.31-.29.31-.3.31-.3.31-.3.3-.3.3-.3.3-.3.3-.3.3-.31.29-.3.29-.3.29-.29.28-.3.28-.29.27-.29.27-.29.26-.28.26-.28.25-.28.25-.27.24-.27.23-.27.23-.26.22-.25.21-.25.21-.25.2-.25.2-.23.18-.13.1-.13.09-.12.09-.12.09-.13.09-.12.09-.13.09-.14.09-.14.09-.14.09-.16.09-.16.1-.18.1-.2.11-.23.11-.26.12-.3.12-.38.13-.4.11-.33.07-.32.05-.36.05-.41.02-.47-.01-.53-.05-.6-.11-.66-.19-.7-.3-.71-.41-.68-.53-.61-.63-.5-.68-.38-.71-.27-.68-.17-.63-.1-.58-.04-.51-.01-.45.02-.39.04-.34.06-.31.05-.26.07-.29.11-.35.12-.33.09-.21.05-.12.05-.11-.02.05.06-.15.07-.16.07-.19.09-.22.09-.24.1-.26.11-.28.12-.31.25-.67.27-.74.3-.8.31-.86.34-.92.35-.96.37-1.01.77-2.13.81-2.24.84-2.31.42-1.18.43-1.17.43-1.18.43-1.18.42-1.16.42-1.15.42-1.13.41-1.1.4-1.08.39-1.04.2-.51.18-.5.19-.49.18-.47.18-.47.18-.45.17-.45.17-.42.15-.39.16-.39.15-.39.17-.4.16-.41.17-.41.17-.42.18-.42.17-.43.18-.43.19-.43.19-.44.37-.89.39-.91.4-.92.4-.93.41-.94.42-.95.42-.95.43-.97.43-.96.43-.97.44-.97.43-.96.43-.97.44-.96.43-.95.43-.95.85-1.86.82-1.81.8-1.74 1.48-3.25.42-.9.4-.87.38-.85.37-.81.37-.78.34-.75.34-.73.33-.7.31-.67.3-.65.3-.62.28-.6.28-.58.26-.55.26-.54.25-.51.23-.5.24-.47.22-.46.22-.44.21-.42.2-.41.2-.39.19-.38.19-.37.18-.35.18-.34.17-.33.17-.32.16-.31.16-.3.16-.29.16-.28.15-.28.15-.27.15-.26.14-.26.15-.25.14-.25.14-.24.28-.48.27-.47.56-.94.29-.49.3-.5.31-.53.09-.16.03-.31.04-.34.04-.35.05-.35.04-.34.04-.35.05-.35.05-.35.06-.35.05-.35.06-.36.06-.35.06-.35.06-.35.07-.35.07-.36.07-.32.05-.24.05-.21.04-.22.05-.22.04-.23.04-.23.04-.23.04-.24.04-.24.04-.24.03-.25.04-.25.04-.26.03-.25.04-.26.03-.26.03-.27.04-.26.03-.27.03-.27.03-.27.03-.27.03-.27.02-.28.03-.275.03-.272.05-.56.04-.556.05-.558.04-.558.05-.556.03-.554.04-.551.04-.546.03-.54.07-1.067.06-1.033.06-.993.03-.484.03-.471.03-.46.03-.43.02-.29.02-.3.02-.323.02-.344.02-.363.01-.378.02-.393.01-.406.01-.416.01-.424.01-.431.01-.437.01-.44v-.44l.01-.318-.11.166-.31.495-.32.497-.32.499-.32.5-.33.504-.32.505-.33.506-.25.386-.08.125-.32.52-.31.522-.33.524-.32.526-.33.527-.32.529-.33.53-.33.533-.34.533-.33.535-.34.537-.34.538-.34.539-.35.54-.34.543-.35.544-.35.544-.35.546-.35.547-.35.548-.36.55-.36.55-.71 1.109-.73 1.1-.73 1.11-.74 1.12-.74 1.12-.75 1.12-.75 1.12-.75 1.12-.76 1.13-.76 1.13-.77 1.13-.77 1.13-.78 1.13-.77 1.13-.78 1.13-.78 1.13-.79 1.13-.78 1.13-.79 1.13-.78 1.12-.79 1.13-.79 1.12-.79 1.12-.79 1.12-.79 1.11-.79 1.12-.78 1.1-.79 1.11-.79 1.1-.78 1.09-.78 1.09-.78 1.09-.78 1.08-.78 1.07-.53.74-.52.73-1.06 1.47-1.06 1.48-1.06 1.49-1.06 1.48-1.06 1.5-1.06 1.49-1.07 1.5-1.06 1.5-1.06 1.51-2.13 3.02-2.13 3.02-2.13 3.03-1.07 1.51-1.07 1.51-1.07 1.52-1.07 1.51-1.07 1.51-1.08 1.51-1.07 1.5-1.08 1.51-1.08 1.5-.54.75-.54.75-.54.75-.54.75-.54.75-.55.74-.54.75-.54.74-.54.74-.55.74-.54.74-.55.74-.54.74-.55.74-.54.73-.54.73-.55.74-.55.73-.56.74-.55.75-.56.74-.56.75-.57.75-.56.75-.57.75-.57.75-.57.76-.58.75-.57.76-.58.75-.58.76-.58.76-.58.76-.58.76-.58.75-.58.76-.59.76-.58.75-.59.76-.58.75-.59.75-.58.75-.59.75-.58.75-.59.75-.58.74-.59.74-.58.74-.09.12-.48.63-.56.75-.56.75-.56.75-.56.74-.56.73-.55.74-.56.73-.55.73-.55.72-.55.72-.55.71-.54.72-.55.7-.54.7-.53.7-.54.69-.53.69-.53.68-.53.67-.52.67-.52.66-.52.66-.51.65-.52.65-.5.63-.51.64-.5.62-.49.62-.5.61-.41.5-.41.51-.41.51-.42.52-.42.51-.43.52-.43.52-.43.53-.43.52-.44.53-.43.52-.44.53-.44.54-.45.53-.44.53-.45.53-.45.53-.44.54-.45.53-.46.53-.45.54-.45.53-.45.53-.45.53-.45.53-.46.52-.45.53-.45.53-.45.52-.45.52-.45.52-.45.51-.45.51-.45.51-.44.51-.45.5-.44.5-.44.5-.44.49-.43.49-.44.49-.43.48-.43.47-.42.47-.43.47-.42.46-.42.45-.41.45-.41.45-.41.43-.4.44-.41.42-.39.42-.4.42-.38.4-.39.4-.38.4-.38.38-.37.38-.37.37-.36.37-.36.35-.36.35-.34.34-.22.21-.21.2-.22.21-.22.2-.22.21-.23.21-.22.21-.23.2-.23.21-.23.21-.24.21-.23.21-.24.2-.24.21-.24.21-.24.21-.25.2-.24.21-.25.2-.25.21-.24.2-.25.21-.25.2-.25.2-.26.2-.25.2-.25.2-.26.2-.25.19-.26.2-.25.19-.26.19-.25.19-.26.19-.26.19-.25.18-.26.18-.26.19-.25.17-.26.18-.26.18-.26.17-.26.17-.25.17-.26.16-.26.16-.26.17-.25.15-.26.16-.26.15-.26.15-.26.15-.26.14-.26.15-.26.13-.26.14-.26.13-.26.13-.27.12-.27.13-.27.12-.26.11-.14.06-.14.05-.14.06-.16.05-.15.06-.18.06-.17.05-.17.05-.16.05-.17.05-.17.04-.16.04-.16.03-.16.04-.16.03-.16.03-.16.03-.16.02-.16.03-.15.02-.16.02-.15.02-.16.02-.15.01-.153.02-.152.01-.152.01-.152.01-.151.01h-.15l-.151.01h-.15l-.15.01h-.745l-.298-.01-.297-.01-.297-.01-.296-.02-.297-.02-.296-.03-.296-.03-.297-.03-.296-.04-.297-.04-.296-.04-.297-.05-.296-.05-.297-.05-.296-.05-.297-.06-.296-.07-.297-.06-.296-.07-.296-.07-.295-.08-.296-.07-.295-.08-.294-.09-.294-.09-.294-.09-.293-.09-.293-.1-.292-.1-.291-.11-.291-.11-.29-.11-.29-.12-.288-.12-.288-.12-.276-.13-.153-.07-.143-.06-.143-.07-.143-.07-.142-.07-.142-.07-.142-.08-.142-.07-.141-.08-.141-.08-.141-.07-.141-.08-.141-.08-.14-.09-.14-.08-.14-.09-.14-.09-.14-.09-.138-.09-.14-.09-.138-.1-.125-.08-.487-.34-.444-.3-.223-.16-.217-.15-.215-.15-.215-.16-.215-.16-.216-.16-.216-.17-.218-.17-.218-.17-.22-.19-.22-.18-.22-.19-.218-.2-.218-.2-.217-.21-.215-.21-.213-.22-.211-.21-.21-.23-.208-.22-.206-.23-.206-.23-.206-.24-.207-.24-.21-.25-.21-.25-.213-.26-.218-.27-.145-.18-.145-.18-.147-.19-.148-.19-.15-.19-.148-.19-.151-.2-.151-.2-.152-.2-.153-.21-.154-.21-.154-.21-.155-.21-.155-.22-.156-.22-.156-.23-.157-.22-.157-.23-.156-.23-.157-.23-.158-.24-.157-.24-.157-.24-.157-.24-.156-.25-.157-.24-.156-.25-.155-.26-.155-.25-.155-.26-.154-.26-.153-.26-.153-.27-.151-.26-.151-.27-.15-.27-.148-.28-.148-.27-.146-.28-.145-.28-.144-.28-.142-.28-.141-.29-.14-.29-.136-.29-.136-.29-.134-.29-.132-.3-.13-.3-.127-.3-.125-.3-.123-.31-.121-.31-.118-.31-.115-.31-.113-.32-.11-.32-.106-.32-.104-.32-.1-.32-.097-.33-.091-.32-.048-.18-.044-.17-.043-.16-.044-.18-.097-.38-.096-.4-.094-.4-.092-.41-.09-.4-.088-.41-.086-.42-.06-.3-.022-.12-.077-.42-.074-.43-.073-.43-.072-.44-.07-.43-.068-.45-.066-.44-.066-.45-.063-.45-.063-.45-.061-.46-.06-.46-.058-.46-.057-.47-.056-.47-.055-.47-.053-.47-.052-.47-.051-.48-.05-.48-.05-.48-.046-.48-.046-.48-.046-.49-.044-.48-.042-.49-.042-.49-.041-.49-.04-.49-.038-.49-.038-.49-.037-.49-.035-.49-.035-.49-.033-.49-.033-.49-.031-.49-.031-.49-.03-.49-.028-.49-.027-.49-.027-.48-.026-.49-.024-.48-.024-.48-.023-.49-.022-.47-.021-.48-.02-.47-.02-.47-.018-.47-.018-.47-.016-.47-.016-.46-.03-.91-.017-.6-.017-.61-.015-.62-.015-.63-.014-.64-.013-.65-.013-.65-.011-.67-.011-.67-.01-.68-.01-.68-.007-.7-.007-.69-.006-.71-.006-.71-.005-.72-.004-.73-.003-.73-.002-.73-.002-.74v-2.25l.002-.76.003-.76.003-.76.004-.77.005-.77.005-.77.007-.77.007-.78.008-.78.008-.77.01-.79.01-.78.01-.78.013-.78.012-.78.014-.78.014-.78.014-.79.016-.78.016-.77.018-.78.017-.77.019-.77.019-.77.02-.77.02-.76.023-.77.023-.75.023-.76.024-.74.024-.75.026-.74.026-.74.027-.73.028-.72.029-.72.029-.71.03-.71.03-.7.033-.69.033-.69.03-.64.034-.64.034-.64.035-.64.037-.65.038-.64.039-.66.04-.65.04-.65.044-.66.043-.65.045-.66.045-.66.047-.66.048-.66.049-.66.049-.66.05-.67.052-.66.053-.66.053-.67.054-.66.055-.66.056-.66.057-.66.057-.67.058-.66.059-.65.059-.66.06-.66.06-.65.062-.66.062-.65.063-.65.063-.65.064-.64.064-.64.065-.65.13-1.27.132-1.26.134-1.24.135-1.24.137-1.22.137-1.2.138-1.18.139-1.17.14-1.14.14-1.12.139-1.1.064-.5.009-.05.093-.53.093-.53.093-.52.144-.8.145-.81.147-.8.147-.81.149-.81.15-.81.15-.81.152-.81.153-.81.154-.81.156-.82.156-.81.157-.82.158-.81.159-.82.16-.81.162-.81.163-.82.163-.81.164-.82.166-.81.166-.82.168-.81.168-.81.169-.81.17-.81.172-.81.172-.81.174-.8.174-.81.175-.8.176-.81.217-.98.22-.99.228-1.01.232-1.03.237-1.05.24-1.051.246-1.068.249-1.082.253-1.092.257-1.103.259-1.113.263-1.121.266-1.13.268-1.137.27-1.143.273-1.15.55-2.308.556-2.322.56-2.327.56-2.326.562-2.316.558-2.3.555-2.278.548-2.25.148-.605.15-.61.15-.611.154-.617.308-1.228.313-1.24.318-1.244.323-1.25.327-1.257.33-1.261.337-1.267.339-1.27.344-1.275.348-1.278.35-1.281.356-1.284.358-1.286.362-1.288.366-1.29.368-1.29.37-1.291.376-1.291.377-1.291.38-1.291.383-1.29.385-1.287.387-1.286.39-1.284.392-1.281.394-1.278.396-1.274.397-1.271.399-1.266.399-1.253.954-2.991 1-3.146 2.128-6.687 1.112-3.493 1.14-3.562 1.15-3.607 1.16-3.627.58-1.816.58-1.811.58-1.805.23-.722.35-1.073.58-1.783.57-1.767.57-1.749.57-1.729.56-1.705.55-1.678.54-1.649.54-1.617.52-1.581.52-1.544.5-1.503.5-1.458.4-1.196.41-1.197.41-1.199.42-1.2.41-1.202.42-1.203.42-1.202.11-.337-.13.04-.47.143-.48.144-.48.144-.5.145-.49.145-.51.146-.51.146-.52.147-.53.147-.54.147-.54.147-.56.148-.56.147-.57.147-.59.147-.59.146-.6.146-.61.145-.62.145-.32.073-.32.072-.32.071-.32.072-.33.072-.33.071-.33.071-.33.071-.34.07-.34.071-.35.07-.34.069-.35.07-.362.07-.488.094-.506.094-.52.093-.531.093-.544.092-.556.092-.568.092-.58.091-.591.091-.603.09-.613.09-.624.09-.635.089-.644.089-.654.088-.664.088-.673.088-.681.086-.69.087-.697.086-.706.085-.713.085-.72.084-.727.084-.733.083-.74.082-.744.082-.751.081-.755.081-.76.079-.764.079-.77.078-.77.078-.776.076-.778.076-.78.075-.783.074-.785.073-.786.072-.787.072-.788.07-.788.069-.79.068-.787.068-.787.066-.787.065-.785.064-.784.063-.781.061-.78.061-.775.059-.774.058-.77.057-.765.055-.762.055-.757.053-.752.051-.747.05-.741.049-.735.047-.73.046-.722.045-.715.043-.71.041-.362.021-.364.019-.364.019-.363.018-.364.016-.364.016-.363.015-.363.013-.364.013-.363.012-.363.011-.364.011-.363.009-.363.008-.363.008-.362.007-.363.006-.363.005-.362.004-.363.004-.362.002-.365.002-.722.002-.724-.001-.724-.005-.723-.007-.723-.01-.723-.013-.722-.015-.722-.017-.721-.02-.721-.023-.721-.025-.72-.027-.72-.028-.72-.031-.717-.033-.72-.035-.717-.037-.717-.038-.717-.04-.716-.041-.716-.043-.715-.045-.715-.045-.714-.047-.714-.048-.713-.049-.713-.05-.712-.051-.712-.051-1.42-.106-1.42-.108-1.415-.109-1.414-.111-2.82-.223-1.405-.111-1.403-.109-1.4-.107-1.4-.105-.695-.051-.697-.051-.695-.049-.053-.004-.648-.045-.388-.027-.397-.03-.398-.03-.401-.032-.403-.033-.406-.035-.407-.035-.41-.037-.412-.038-.414-.04-.417-.04-.418-.041-.42-.043-.424-.044-.848-.089-.856-.094-.864-.096-.87-.1-.877-.103-.882-.105-.887-.107-.892-.11-.896-.111-.901-.113-.905-.113-1.817-.231-1.827-.232-1.835-.232-.918-.115-.918-.114-.918-.113-.918-.112-.916-.11-.915-.108-.913-.106-.91-.103-.433-.048-.438-.048-.443-.046-.445-.046-.904-.091-.912-.091-.914-.091-.46-.046-.46-.047-.457-.048-.457-.049-.456-.05-.452-.052-1.015-.118-.99-.118-.971-.116-.954-.116-1.878-.228-.931-.113-.935-.112-.474-.057-.474-.058-.472-.058-.47-.059-.922-.118-.911-.12-.894-.119-.88-.119-.86-.119-.844-.117-1.626-.229-1.547-.217-.738-.103-.716-.099-.69-.094-.68-.09-.232-.031-.245-.035-.242-.037-.24-.038-.238-.04-.236-.041-.233-.041-.231-.043-.228-.044-.226-.044-.224-.044-.225-.046-.433-.09-.43-.091-.825-.179-.403-.086-.392-.084-.388-.081-.185-.038-.186-.037-.184-.037-.182-.034-.18-.034-.174-.032-.351-.061-.368-.062-.387-.063-.402-.066-.841-.135-.438-.072-.445-.074-.447-.077-.231-.041-.23-.041-.23-.043-.23-.043-.231-.045-.232-.046-.232-.048-.233-.049-.233-.051-.234-.052-.234-.055-.233-.057-.234-.059-.213-.056-.31-.081-.287-.074-.285-.07-.283-.069-.281-.065-.281-.064-.28-.061-.28-.06-.28-.058-.278-.056-.281-.055-.281-.054-.283-.053-.284-.052-.285-.051-.286-.051-.586-.102-.594-.101-.608-.103-.621-.106-.634-.11-.328-.058-.33-.059-.333-.061-.34-.063-.343-.065-.341-.066-.365-.071-.358-.069-.726-.138-.731-.136-.736-.134-.741-.132-.745-.131-.75-.129-.753-.128-.756-.126-.76-.125-.761-.124-.762-.122-.764-.122-.765-.12-.765-.119-.764-.119-1.53-.234-1.52-.23-3.008-.455-1.481-.224-1.458-.224-.723-.112-.715-.111-.708-.112-.7-.112-1.253-.202-1.252-.202-2.5-.406-2.498-.405-2.495-.404-1.246-.201-1.245-.199-1.245-.198-1.245-.196-1.243-.195-1.244-.193-1.242-.19-1.247-.189-1.327-.2-1.345-.206-2.716-.417-1.372-.21-1.377-.211-1.383-.209-.691-.103-.693-.103-.694-.103-.694-.101-.694-.1-.694-.1-.694-.097-.693-.097-.693-.095-.691-.093-.691-.092-.69-.09-.688-.087-.687-.086-.685-.083-.684-.081-.681-.079-.684-.076-.83-.092-.845-.095-.858-.098-.867-.099-.875-.103-.882-.104-.888-.106-.892-.108-.895-.111-.896-.112-.897-.113-.897-.116-.893-.116-.891-.119-.885-.119-.88-.121-.871-.122-.863-.123-.853-.124-.842-.126-.83-.125-.813-.127-.404-.064-.4-.064-.393-.064-.391-.064-.386-.064-.381-.065-.377-.064-.373-.065-.367-.065-.363-.065-.357-.065-.352-.066-.347-.065-.342-.066-.336-.066-.33-.066-.325-.066-.32-.067-.312-.066-.291-.064-.29-.063-.28-.058-.286-.057-.293-.056-.298-.055-.303-.054-.307-.053-.312-.051-.314-.051-.317-.049-.32-.049-.32-.047-.322-.046-.323-.045-.323-.045-.323-.043-.322-.042-.32-.041-.64-.081-.627-.077-.615-.075-1.18-.142-.561-.069-.523-.066-.346-.044-.335-.04-.337-.038-.341-.037-.343-.036-.346-.035-.35-.034-.35-.033-.715-.066-.723-.065-.732-.066-.372-.034-.371-.034-2.111-.2-1.186-.112-1.22-.114-1.214-.112-1.168-.106-.55-.048-.524-.046-.491-.042-.46-.037-.662-.055-.667-.057-.663-.057-.658-.058-.655-.058-.65-.056-.647-.055-.653-.054-.351-.029-.357-.032-.353-.032-.35-.033-.687-.064-.337-.032-.333-.03-.328-.028-.323-.027-.318-.024-.318-.022-.15-.009-.152-.009-.152-.009-.15-.007-.147-.007-.147-.005-.145-.005-.152-.004-1.796-.044-.972-.023-1.002-.022-.505-.01-.51-.01-.507-.009-.507-.008-.504-.007-.497-.005-.491-.004-.483-.003-.612-.002h-.647l-.677.001-.702.002-.724.003-.738.004-1.512.01-1.523.012-1.5.013-1.441.015-1.35.014-2.302.025-1.15.013-1.146.016-.57.008-.568.01-.566.01-.563.011-.561.013-.557.013-.554.015-.551.017-.544.017-.553.02-.56.02-.563.022-.566.023-.567.024-.566.026-.564.026-.56.027-.551.027-.545.028-.534.028-.522.029-.51.029-.492.029-.471.028-.381.025-.38.027-.384.028-.387.031-.391.032-.391.033-.8.071-.803.072-.81.072-.41.035-.41.035-.412.033-.414.032-.405.03-.404.027-.4.026-.396.024-.776.045-.765.044-.374.022-.371.023-.367.024-.363.025-.358.026-.355.028-.354.031-.17.015-.172.017-.406.04-.42.044-.43.046-.44.049-.448.051-.454.052-.458.055-.46.056-.46.058-.456.058-.454.059-.45.06-.44.059-.431.06-.42.059-.404.058-.355.052-.354.055-.358.057-.361.058-.363.061-.366.062-.366.064-.367.064-.741.133-.74.135-.738.134-.73.133-1.396.251-.698.127-.691.127-.682.128-.33.063-.328.063-.32.063-.314.063-.305.062-.296.061-.26.056-.261.057-.263.059-.264.06-.267.062-.265.062-.547.132-.551.134-.56.138-.567.14-.574.14-.708.171-.746.179-.774.186-.792.191-.801.196-.397.099-.397.099-.393.099-.387.1-.381.099-.376.099-.894.24-.462.125-.472.128-.48.131-.486.134-.49.136-.495.138-.496.14-.498.141-.498.143-.495.143-.493.144-.49.145-.481.144-.484.147-.54.164-.553.166-1.114.333-.56.168-.561.169-.56.171-.561.173-.275.086-.277.088-.276.088-.275.089-.273.09-.272.09-.27.09-.27.092-.265.092-.264.093-.261.093-.26.094-.256.095-.253.096-.25.096-.25.098-.281.113-.29.118-.294.122-.301.126-.306.13-.31.134-.315.137-.318.14-.322.143-.325.145-.328.148-.33.15-.331.152-.333.154-.335.155-.333.156-.674.316-.671.318-.668.319-.662.318-.653.314-.643.311-1.237.597-.543.263-.548.267-.555.273-.561.278-.563.281-.563.283-.561.284-.557.283-.55.282-.541.278-.53.275-.514.269-.498.263-.48.254-.457.245-.433.234-.324.177-.322.178-.322.181-.322.182-.204.117-.117.067-.321.186-.32.188-.318.189-.318.191-.317.192-.315.193-.314.195-.313.195-.311.197-.31.198-.306.198-.302.197-.301.199-.302.201-.301.203-.301.205-.3.207-.3.208-.297.209-.296.21-.294.211-.291.212-.29.212-.286.212-.283.211-.28.212-.276.211-.123.095-.123.096-.124.098-.12.095-.254.205-.252.206-.254.211-.256.215-.26.22-.26.222-.535.461-.544.469-.28.24-.281.241-.287.244-.282.238-.008.007-3.385 1.066-3.156-1.623-.013-.015-1.066-3.384 1.623-3.157.007-.006.267-.225.26-.221.262-.225.265-.228.543-.469.553-.476.285-.244.288-.245.293-.246.298-.248.303-.249.305-.245.16-.128.158-.125.16-.124.16-.125.315-.241.318-.24.32-.24.324-.24.326-.239.329-.239.33-.237.333-.237.334-.235.336-.234.337-.232.338-.231.339-.229.34-.227.34-.225.34-.222.345-.223.346-.221.347-.221.35-.219.35-.218.354-.216.355-.216.356-.214.357-.212.359-.211.36-.21.133-.076.229-.131.363-.206.364-.204.364-.203.365-.199.468-.254.488-.262.507-.269.524-.277.539-.282.552-.287.563-.291.57-.293.58-.295.582-.296.586-.294.585-.293.584-.29.58-.286.573-.281.56-.272 1.243-.601.647-.312.663-.321.676-.325.687-.328.696-.331.699-.329.354-.166.353-.164.353-.163.353-.163.353-.161.353-.159.352-.158.35-.156.35-.155.349-.152.346-.149.345-.147.342-.144.34-.141.339-.138.336-.135.307-.121.308-.119.309-.117.309-.115.309-.113.309-.111.309-.108.309-.107.308-.106.307-.103.307-.102.306-.101.305-.099.304-.097.302-.096.304-.095.595-.185.59-.181.582-.176.572-.172 1.11-.333.536-.161.529-.161.5-.152.513-.154.517-.154.518-.152.52-.151.52-.149.518-.148.516-.146.512-.143.508-.141.5-.139.495-.136.486-.132.478-.13.919-.247.409-.108.415-.109.417-.107.419-.107.42-.105.42-.104.827-.203.81-.197.78-.188.742-.179.689-.167.554-.136.56-.138.568-.141.577-.141.583-.141.299-.071.299-.069.3-.069.305-.069.307-.067.307-.066.337-.07.342-.07.345-.069.349-.069.352-.069.357-.068.712-.134.717-.133.715-.13 1.398-.253.72-.131.736-.135.754-.138.766-.138.39-.069.393-.069.395-.067.396-.067.399-.065.4-.064.402-.062.399-.06.438-.063.446-.063.457-.063.465-.064.472-.063.477-.062.48-.062.485-.061.483-.06.483-.058.48-.056.477-.055.47-.052.463-.05.454-.048.444-.045.21-.02.214-.02.41-.035.413-.033.408-.031.404-.028.4-.026.396-.025.393-.023.77-.045.759-.045.37-.023.368-.024.364-.025.36-.027.374-.029.38-.031.385-.033.388-.034.795-.071.809-.074.82-.072.418-.036.419-.035.422-.034.425-.032.427-.031.425-.027.5-.031.51-.031.527-.03.539-.03.55-.03.56-.029.57-.029.575-.028.579-.027.583-.027.584-.025.585-.025.582-.023.578-.022.574-.02.567-.019.577-.018.579-.016.58-.015.58-.013.583-.012.583-.011.583-.011.584-.009 1.163-.016 1.16-.015 2.309-.027 1.352-.016 1.449-.015 1.509-.016 1.535-.013 1.525-.012.75-.004.735-.004.716-.002.693-.002h.665l.635.001.51.002.518.004.52.006.526.006.525.008.525.009.522.009.52.01 1.017.022.983.022 1.81.042.194.005.2.007.2.007.199.009.197.01.196.01.195.012.197.012.378.026.377.028.372.03.367.032.36.032.356.032.69.065.336.031.329.03.322.028.325.026.66.054.667.057.663.056.658.058.655.056.65.056.647.055.65.053.47.038.513.043.54.047.567.049 1.185.106 1.229.112 1.23.114 1.193.112 2.107.197.356.033.355.033.723.064.73.065.74.067.376.035.378.036.38.038.382.04.385.042.388.044.39.046.378.047.508.064.532.065 1.17.14.628.075.65.08.668.083.344.044.345.045.349.047.35.047.355.05.356.05.357.053.359.054.36.055.36.058.36.06.36.061.36.064.36.066.359.068.358.071.356.074.337.072.278.061.27.057.279.058.287.058.294.059.303.059.309.059.317.06.323.059.33.06.336.06.343.061.349.06.354.06.36.061.365.06.37.061.376.06.38.061.383.06.784.121.799.121.813.12.826.119.838.119.848.118.856.117.864.116.87.114.875.114.878.112.88.111.88.109.879.107.876.106.873.104.868.101.86.1.854.097.844.096.834.092.827.091.705.078.712.082.713.084.713.086.714.088.714.09.713.092.714.094.713.096.712.097.712.098.71.1.71.101.709.102.708.102.705.104.704.104.703.104 1.397.21 1.387.211 1.376.21 2.714.414 1.333.202 1.32.199 1.257.189 1.26.191 1.258.194 1.258.196 1.256.197 1.255.198 1.254.2 1.254.2 2.503.403 2.5.404 2.498.402 1.247.201 1.245.199.684.109.692.109.702.109.708.109 1.444.219 1.47.222 3.01.452 1.53.23 1.543.235.777.12.777.12.779.122.779.123.78.124.78.127.78.127.779.13.778.131.776.133.773.135.772.137.768.139.765.141.758.143.38.073.372.072.317.061.307.058.306.057.305.055.303.054.3.053.608.105.605.102.608.103.613.104.615.106.315.056.314.056.317.058.32.059.322.062.325.063.329.066.33.069.335.071.338.073.342.077.345.08.348.084.353.087.356.091.339.089.162.042.146.037.153.037.159.037.164.037.168.036.174.037.178.036.18.036.187.036.188.035.192.035.194.035.194.034.403.069.407.068.41.067.834.133.417.067.416.068.415.07.408.071.232.041.228.043.225.043.224.043.22.045.224.045.428.089.425.09.415.09.81.174.392.083.389.08.186.038.188.037.185.036.183.035.18.033.18.032.178.03.175.029.173.027.17.026.17.024.18.025.682.089.714.097.733.1.752.104 1.55.217 1.62.226.832.115.846.115.859.116.873.116.884.115.898.114.45.056.454.056.457.055.463.055.94.112.94.113 1.88.227.947.114.959.114.973.115.992.115.42.047.425.046.432.046.437.045.442.045.446.045.907.09.917.09.922.092.466.047.464.049.465.049.462.051.935.106.934.107.933.11.933.111.932.112.93.114.93.115.927.115 1.843.231 1.829.231 1.812.228.897.112.892.11.885.109.879.107.87.105.864.102.855.099.847.097.837.093.827.089.819.086.402.041.402.04.399.039.396.038.393.037.389.036.387.034.384.034.38.032.377.03.374.03.37.028.366.026.369.026.65.044.053.004.708.049.708.05.709.051 1.414.104 1.414.106 1.412.108 1.41.108 2.82.218 1.407.108 1.405.107 1.404.104 1.403.102.7.05.7.048.699.048.699.047.698.046.698.044.698.044.697.042.696.04.696.039.696.038.695.036.694.034.693.032.694.031.692.029.692.026.69.025.692.023.69.02.689.018.689.016.688.013.687.011.687.008.686.006.685.003h.685l.686-.003.34-.002.34-.003.342-.004.34-.005.342-.005.34-.006.342-.007.34-.008.34-.009.34-.009.34-.01.339-.011.34-.012.339-.012.339-.014.339-.014.338-.015.338-.016.339-.017.338-.018.337-.019.339-.019.692-.042.7-.043.709-.045.715-.046.722-.048.728-.049.733-.051.739-.052.745-.053.748-.055.754-.055.757-.058.76-.058.764-.06.767-.06.769-.062.77-.064.774-.064.774-.065.775-.067.776-.067.776-.069.776-.069.775-.071.775-.071.773-.072.77-.074.77-.074.767-.074.765-.076.76-.077.758-.077.754-.078.749-.079.745-.079.74-.08.734-.08.729-.082.722-.081.716-.083.708-.083.702-.083.694-.084.686-.084.677-.084.668-.085.659-.085.65-.086.639-.086.629-.086.618-.086.606-.086.595-.087.583-.086.57-.087.557-.086.544-.087.529-.086.515-.086.5-.086.485-.086.469-.085.452-.084.44-.085.326-.065.326-.065.324-.066.32-.066.317-.066.315-.066.31-.066.31-.067.31-.067.3-.066.3-.068.3-.067.29-.067.29-.067.58-.136.57-.136.56-.136.55-.137.54-.137.53-.138.52-.138.52-.138.51-.138.5-.138.49-.138.49-.139.48-.139.48-.138.47-.139.47-.138.46-.139.46-.138.45-.138.9-.276.89-.274.88-.273 1.21-.375 1.19-.368 1.15-.361.86-.27.03-.076.43-1.175.42-1.17.43-1.165.42-1.158.43-1.152.42-1.145.42-1.138.42-1.129.42-1.121.41-1.113.42-1.103.41-1.094.41-1.083.41-1.073.41-1.066.36-.94.35-.922.36-.901.34-.878.18-.438.17-.43.17-.426.17-.423.17-.418.17-.415.17-.411.16-.408.17-.405.17-.402.17-.4.16-.396.17-.395.16-.392.17-.389.17-.393.33-.765.33-.765.34-.759.34-.756.33-.754.35-.752.34-.754.35-.754.35-.758.35-.762.37-.768.36-.776.37-.784.38-.794.39-.805.39-.819.4-.834.41-.85.86-1.765.21-.433.24-.477.25-.508.27-.54.29-.57.3-.6.32-.625.34-.652.69-1.359.74-1.427.76-1.47.77-1.494 1.53-2.964.73-1.423.7-1.357.33-.642.32-.616.29-.587.29-.554.26-.517.24-.476.21-.43.2-.39.57-1.169.54-1.105.51-1.045.49-.997.47-.956.24-.472.23-.465.23-.46.23-.458.23-.456.24-.456.23-.457.24-.459.24-.46.25-.466.25-.47.25-.476.26-.483.27-.49.28-.5.28-.51.29-.522.3-.535.31-.548.32-.563.34-.58.34-.599.35-.586.34-.59.35-.594.35-.595.36-.599.36-.6.37-.603.37-.606.37-.607.37-.61.38-.612.38-.614.24-.378.16-.234.4-.608.41-.61.41-.612.41-.612.42-.615.42-.615.42-.617.42-.618.43-.62.43-.62.43-.62.44-.623.44-.623.43-.623.45-.624.44-.624.45-.625.45-.626.45-.625.45-.626.45-.625.46-.626.46-.625.46-.626.46-.625.46-.624.46-.624.47-.624.47-.623.46-.622.47-.622.47-.62.47-.62.47-.618.48-.617.47-.616.47-.615.48-.613.47-.61.48-.61.48-.609.47-.607.48-.604.48-.603.47-.6.48-.598.48-.596.48-.594.47-.59.48-.59.48-.585.4-.49.39-.484.4-.479.39-.473.38-.469.39-.462.38-.458.38-.453.37-.448.37-.442.37-.438.37-.433.36-.428.36-.423.36-.418.36-.414.35-.409.35-.405.35-.4.34-.396.35-.39.34-.388.33-.382.34-.378.33-.374.33-.37.33-.366.33-.36.32-.359.32-.354.33-.349.31-.346.32-.342.31-.338.31-.335.31-.33.31-.328.31-.324.3-.32.3-.316.3-.314.3-.31.3-.306.29-.303.3-.3.29-.297.29-.294.29-.29.29-.288.28-.284.29-.282.28-.278.28-.276.28-.273.28-.27.28-.267.27-.265.28-.262.27-.259.28-.257.27-.254.27-.252.27-.25.27-.247.26-.245.27-.242.26-.24.27-.238.26-.236.26-.234.26-.232.26-.229.26-.228.26-.226.26-.223.26-.222.25-.22.26-.219.25-.217.26-.215.25-.213.26-.215.5-.416.5-.413.5-.408.5-.402.49-.399.5-.393.49-.39.5-.387.49-.383.49-.38.49-.379.49-.376.49-.375.49-.374.5-.374.98-.745 1-.749 1-.755 1.02-.77.26-.196.27-.199.27-.199.26-.199.27-.198.27-.197.27-.197.28-.197.27-.196.27-.196.28-.194.27-.195.28-.193.28-.193.28-.192.28-.19.28-.192.28-.19.28-.189.28-.188.29-.187.28-.186.28-.185.29-.184.28-.183.29-.182.28-.18.29-.18.29-.18.28-.178.29-.176.29-.175.28-.174.29-.172.29-.17.29-.17.29-.169.28-.167.29-.165.29-.164.29-.163.29-.16.29-.16.28-.157.29-.156.29-.155.29-.152.29-.15.28-.15.29-.147.29-.146.29-.143.28-.142.29-.139.29-.138.28-.135.29-.134.28-.132.29-.129.28-.127.29-.125.28-.123.29-.12.28-.116.43-.177.43-.174.43-.175.44-.176.45-.175.45-.176.45-.175.46-.17.24-.09.23-.086.24-.085.23-.085.24-.085.24-.084.24-.083.24-.082.25-.082.24-.08.25-.08.24-.08.25-.078.25-.077.25-.076.25-.075.26-.073.25-.073.26-.07.26-.07.26-.068.26-.067.26-.065.26-.063.27-.062.26-.06.27-.058.27-.056.27-.054.27-.053.27-.05.28-.047.27-.046.28-.043.28-.04.28-.039.28-.036.28-.033.28-.03.29-.028.29-.025.28-.022.29-.018.29-.016.29-.012.29-.01.3-.005.28-.002.48.002.47.003.48.005.49.008.49.01.5.013.26.008.26.01.26.008.26.011.26.011.26.013.27.014.26.015.27.017.27.018.27.02.27.02.27.022.27.024.27.025.28.027.27.03.28.03.28.033.28.034.27.037.28.04.28.04.28.044.28.046.29.048.28.051.28.053.28.057.29.06.28.061.29.065.28.068.29.072.28.075.29.08.28.081.29.086.28.09.28.091.15.051.14.05.15.051.14.051.14.053.14.054.14.056.15.056.14.058.14.06.14.06.15.06.14.063.14.064.14.065.14.067.15.068.14.07.14.071.14.072.14.074.14.075.14.077.14.08.24.136.23.141.24.144.23.146.24.148.23.152.22.153.23.156.23.16.22.16.22.163.22.166.22.168.22.171.21.172.22.175.21.177.21.18.21.181.2.184.21.186.2.188.2.19.2.192.19.195.2.196.19.198.19.201.19.202.19.204.18.207.19.208.18.21.18.212.17.214.18.216.17.218.17.22.17.221.16.224.17.225.16.227.16.23.15.23.16.232.15.234.15.236.14.238.15.24.14.24.14.243.13.245.14.246.13.25.12.248.13.252.12.253.12.255.12.256.11.258.11.26.11.261.1.263.1.263.11.284.1.284.09.287.1.288.09.291.09.292.09.295.08.296.09.3.08.3.07.302.08.304.07.306.07.308.07.31.07.311.06.314.07.314.06.317.05.318.06.32.05.32.05.323.06.324.04.325.05.326.04.327.04.33.04.328.04.331.03.331.04.333.03.333.02.334.03.335.03.335.02.336.02.336.02.337.01.337.01.337.02.338v.338l.01.338.01.338v.675l-.01.338v.338l-.01.337-.01.337-.01.336-.01.337-.02.335-.02.335-.02.335-.03.334-.03.333-.02.332-.04.331-.03.331-.02.17-.02.16-.03.33-.04.322-.04.36-.05.36-.05.363-.05.368-.05.371-.06.375-.05.378-.06.382-.07.386-.06.388-.07.392-.07.395-.07.397-.07.4-.08.403-.07.406-.08.407-.09.41-.08.412-.09.414-.09.415-.09.418-.09.42-.1.42-.1.421-.1.422-.11.424-.1.425-.11.425-.11.426-.11.427-.12.427-.12.427-.12.427-.12.428-.13.427-.13.427-.13.426-.13.426-.14.425-.14.425-.14.423-.14.423-.15.421-.15.42-.15.42-.16.416-.15.411-.08.211-.08.207-.09.206-.08.206-.08.205-.08.205-.09.204-.08.204-.09.203-.09.202-.08.202-.09.202-.09.2-.09.2-.09.2-.09.2-.09.197-.1.197-.09.197-.1.196-.09.195-.1.195-.1.194-.09.193-.1.192-.1.192-.1.191-.11.19-.1.19-.1.187-.11.188-.1.176-.38.667-.38.687-.83 1.461-.44.772-.45.796-.47.818-.24.42-.25.423-.25.43-.25.433-.26.44-.26.442-.26.448-.27.453-.28.457-.28.461-.28.464-.29.47-.29.471-.29.476-.3.48-.31.482-.31.485-.31.488-.32.491-.32.494-.33.496-.33.498-.34.5-.34.503-.34.504-.35.506-.36.505-.18.257-.18.254-.18.255-.18.255-.19.256-.18.256-.19.256-.19.256-.19.256-.19.257-.19.256-.19.257-.2.257-.19.257-.2.258-.2.257-.19.257-.21.258-.2.257-.2.257-.2.258-.21.257-.21.257-.21.258-.21.257-.21.257-.21.257-.21.256-.22.257-.21.256-.22.256-.22.256-.22.256-.22.255-.22.255-.23.255-.22.255-.23.254-.23.254-.23.253-.23.253-.23.253-.24.252-.23.252-.24.251-.24.248-.4.426-.41.426-.41.427-.41.43-.42.43-.42.431-.42.433-.42.434-.43.435-.43.437-.43.438-.43.438-.43.44-.44.44-.44.441-.44.442-.44.442-.45.443-.45.443-.45.444-.45.443-.45.445-.45.444-.46.444-.45.444-.46.445-.46.444-.46.443-.46.444-.47.443-.46.443-.47.442-.47.441-.46.441-.47.44-.47.44-.47.438-.47.437-.48.436-.47.435-.47.434-.48.433-.47.431-.47.43-.48.428-.47.427-.48.425-.48.423-.47.422-.48.42-.48.417-.47.416-.48.413-.47.412-.48.41-.48.406-.47.404-.48.402-.47.4-.48.396-.47.394-.48.391-.47.39-.47.384-.43.345-.43.345-.42.344-.43.344-.43.343-.44.343-.43.343-.44.342-.44.342-.43.342-.44.34-.44.341-.45.34-.44.34-.44.338-.45.338-.44.337-.45.337-.44.336-.45.335-.45.335-.44.334-.45.332-.45.333-.45.331-.45.33-.45.33-.45.33-.89.652-.9.65-.9.645-.89.641-.89.636-.89.631-.89.625-.88.62-.87.615-.87.608-.87.602-.16.108-.7.49-.85.588-.85.583-.83.576-.83.57-.82.56-.82.554-.37.254-.38.254-.38.252-.37.252-.38.25-.38.249-.38.247-.38.247-.38.245-.38.244-.38.243-.38.241-.38.241-.39.24-.38.238-.38.238-.38.236-.39.235-.38.235-.39.234-.38.232-.39.232-.38.231-.38.23-.39.229-.39.229-.77.453-.77.451-.77.449-.77.446-.77.443-.78.441-.77.439-.77.437-.77.435-.78.433-.77.433-1.54.859-1.53.857-1.54.854-1.53.855-.4.222-.4.222-.4.219-.4.216-.39.213-.39.21-.4.209-.38.205-.39.204-.39.201-.38.2-.38.197-.39.195-.38.194-.38.192-.38.191-.38.189-.38.187-.38.187-.37.185-.38.184-.38.185-.75.363-.76.363-.76.36-.76.361-.77.36-.77.362-.78.364-1.58.738-1.63.758-.82.388-.85.397-.86.404-.87.415-.89.425-.91.436-.93.45-.47.228-.48.233-.48.236-.49.24-.5.244-.5.251-.44.218-.45.219-.45.216-.45.214-.44.211-.45.209-.44.207-.45.205-.45.202-.44.2-.45.198-.44.196-.45.195-.45.192-.45.191-.44.189-.45.187-.45.186-.46.184-.45.183-.14.057-.09.267-.4 1.149-.4 1.154-.4 1.16-.4 1.164-.4 1.168-.4 1.172-.4 1.176-.39 1.178-.4 1.181-.4 1.182-.39 1.183-.4 1.185-.39 1.185-.39 1.184-.39 1.184-.38 1.184-.39 1.181-.38 1.179-.38 1.177-.38 1.173-.45 1.433-.47 1.478-.48 1.522-.5 1.563-.5 1.601-.51 1.636-.51 1.667-.53 1.695-.53 1.721-.53 1.743-.55 1.763-.54 1.779-.33 1.072-.22.72-.55 1.802-.56 1.809-.55 1.813-1.11 3.629-1.1 3.61-1.08 3.569-1.06 3.504-2.04 6.716-.96 3.166-.92 2.999-.37 1.227-.37 1.225-.36 1.229-.37 1.234-.36 1.237-.36 1.24-.36 1.245-.36 1.246-.35 1.248-.36 1.25-.35 1.25-.34 1.253-.35 1.252-.34 1.25-.34 1.252-.33 1.249-.34 1.248-.33 1.245-.32 1.243-.32 1.24-.32 1.237-.32 1.232-.31 1.228-.3 1.223-.3 1.217-.3 1.212-.3 1.205-.28 1.199-.29 1.19-.28 1.188-.14.585-.13.586-.14.585-.13.584-.52 2.244-.52 2.274-.52 2.294-.53 2.309-.52 2.315-.52 2.314-.52 2.306-.52 2.294-.25 1.137-.25 1.13-.25 1.126-.247 1.116-.243 1.107-.241 1.098-.236 1.089-.234 1.07-.23 1.06-.224 1.05-.221 1.03-.216 1.02-.212 1-.206.99-.201.96-.196.95-.157.77-.158.77-.156.78-.155.77-.155.78-.154.78-.152.78-.152.78-.152.78-.15.79-.15.79-.148.78-.147.79-.147.79-.146.78-.144.79-.144.79-.143.79-.142.79-.141.79-.14.79-.14.79-.138.79-.137.79-.136.78-.135.79-.134.79-.133.78-.133.79-.131.78-.13.79-.13.78-.078.48-.08.5-.081.5-.008.05-.093.45-.21 1.03-.212 1.05-.213 1.07-.214 1.09-.216 1.12-.216 1.13-.216 1.15-.216 1.17-.216 1.18-.215 1.19-.215 1.21-.106.61-.107.61-.106.61-.106.62-.105.61-.105.62-.104.62-.104.62-.103.63-.102.62-.102.63-.101.62-.101.63-.1.63-.098.63-.098.63-.098.62-.096.63-.095.63-.094.63-.094.63-.092.62-.091.63-.09.62-.09.63-.087.62-.087.62-.085.62-.084.61-.083.62-.081.61-.08.61-.08.61-.076.6-.075.61-.074.59-.073.6-.071.59-.076.65-.076.66-.076.66-.076.67-.075.68-.075.69-.075.69-.074.7-.074.71-.074.71-.073.71-.072.72-.073.73-.071.73-.071.73-.071.74-.07.74-.07.75-.068.74-.068.75-.068.76-.066.75-.066.76-.066.75-.064.76-.064.76-.063.76-.062.76-.061.76-.061.76-.06.75-.058.76-.057.76-.057.75-.056.75-.054.75-.054.75-.053.75-.051.74-.051.74-.05.73-.047.73-.048.73-.046.72-.044.72-.044.71-.042.7-.041.71-.04.69-.04.69-.036.68-.036.67-.035.67-.033.66-.032.65-.031.64-.03.64-.026.62-.027.62-.024.61-.024.59-.022.59-.02.57-.02.57-.025.86-.012.43-.011.43-.011.44-.01.44-.01.44-.008.44-.008.45-.007.45-.006.45-.006.45-.004.45-.004.46-.003.45-.002.46-.002.45v.92l.002.45.002.46.004.46.004.46.005.45.006.46.008.45.008.45.009.46.01.45.012.44.012.45.014.45.014.44.016.44.016.44.018.43.019.43.02.43.02.43.024.42.023.42.025.41.026.41.027.41.028.4.029.4.03.39.032.38.033.38.033.38.035.37.036.36.038.36.038.35.039.35.04.33.012.1.025.23.036.32.037.32.037.3.039.3.04.29.04.28.042.28.008.06.01.08.012.07.009.06.028.16.029.16.03.15.035.17.037.16.039.17.042.17.045.17.048.18.05.17.052.18.055.18.058.19.06.18.063.19.065.19.067.19.069.19.07.19.075.19.075.2.078.19.079.2.08.19.084.2.084.2.086.19.088.2.089.19.09.2.092.19.093.2.094.19.095.2.096.19.097.19.098.19.098.19.099.19.1.19.1.18.1.19.102.18.102.19.1.17.103.18.102.18.1.17.103.18.1.17.102.16.1.17.1.16.1.16.098.16.098.15.097.16.097.15.095.14.093.14.093.14.09.14.15.22.14.2.133.19.122.18.113.16.105.14.097.14.089.12.082.1.077.1.103.13-.066-.07.099.12.098.11-.071-.07.097.11.096.1-.073-.07.098.11.099.1-.072-.07.104.11.106.1-.065-.05.113.1.089.09.098.09.109.1.12.1.132.12.144.12.157.13.167.14.384.31.415.34.062.05-.057-.04.05.04.052.04-.055-.03.054.04.054.04-.053-.04.056.05.057.04-.051-.03.059.04.06.04-.05-.03.063.04.062.05-.048-.03.065.04.065.04-.047-.02.067.04.068.04-.046-.02.07.04.07.04-.044-.02.072.04.073.05-.044-.03.074.05.075.04-.042-.02.066.04.124.07.119.06.123.07.127.06.13.07.135.06.138.07.14.06.145.07.146.06.149.06.15.06.152.06.154.05.155.06.155.05.157.06.156.05.157.05.157.04.156.05.155.04.155.04.153.04.15.04.15.04.149.03.145.03.142.03.139.03.135.02.132.02.128.02.167.02h-.088l.162.02.159.01h-.093l.166.01.063.01h-.05.075l.074.01h-.052.142-.053l.069.01h.069-.056.131l-.058.01h.126-.062.12-.065.113l-.068.01.053-.01zm272.7 10.57l-.09.01.07-.01-.09.01h.08l-.08.01.08-.01-.08.01.08-.01-.08.01h.05l.04-.01-.07.01h.05l.06-.01-.1.02.12-.02.11-.02-.1.02.13-.02h.02-.09.07-.12.07-.11.07l-.11.01h.07-.1.07l-.1.01.08-.01zm.22-.01zm0 0h.01-.01zm-.01 0l-.04-.01.04.01zm-146.1-74.49l.02-.04v-.01l-.02.05zm102.42-34.38l-.09.07.07-.05-.08.06.07-.05-.08.06.07-.05-.08.06.07-.05-.08.06.07-.05-.08.06.08-.05-.08.06.07-.05-.07.06.07-.06-.07.07.07-.06-.07.06.07-.06-.07.07.07-.07-.07.07.06-.05.06-.06-.05.05.07-.06.06-.07-.04.05.08-.08.01-.02-.08.05.07-.04-.1.06.07-.04-.1.06.07-.04-.09.06.07-.04-.09.06.07-.05zm.06-.05l.06-.03-.06.03zm.04-.03l.02-.01h.01l-.03.01zm-68.16-93.014l.09-.141-.02.034.12-.243-.02.037.05-.1-.22.413zm184.16-42.256l.09.044-.05-.027.1.04-.06-.025.1.039-.06-.026.09.036-.05-.025.09.033-.05-.024.08.03-.05-.022.08.028-.05-.022.08.026-.06-.022.09.024-.06-.021.08.023-.06-.021.08.02-.06-.02.07.02-.06-.02.08.018-.06-.017.07.015-.06-.017.07.014-.06-.016.07.012-.07-.015.07.01-.06-.014.06.01-.06-.014.06.01-.06-.014.06.008-.06-.012.06.007-.07-.012.06.006-.06-.011.05.005-.06-.01.05.004-.06-.01.05.004-.06-.008.05.003-.07-.01.08.005-.14-.015.1.003-.14-.012h.1l-.14-.01h.09l-.15-.006.09-.003-.14-.004.08-.004-.11-.004-.1-.002.08-.007h-.12l.07.034-.05-.03.1.049-.05-.028zm-.07-.024l.02.01-.02-.01zm-105.04-34.598l.06.012-.05-.018-.01.006zm.48-.368v.001-.002.001zm.02-.02v.005l.04-.015-.04.01zm.03-.02l-.01.011.08-.032-.07.021zm.7-.463l.05-.039-.1.06-.09.062.04-.035-.1.068-.08.055-.09.06-.09.064-.1.069-.1.073-.04.024.14-.053-.08.024.14-.062-.07.026.14-.066-.07.028.14-.071-.07.029.14-.076-.07.031.15-.081-.07.033.14-.086-.07.035.14-.092-.06.037.14-.097-.07.039.14-.102-.06.041.09-.073-.11.075zm-82.33-194.749l-.21.001-.22.002-.21.003-.21.004-.43.01-.43.01-.43.014-.43.015-.43.017-.41.018-.16.01-.15.01-.14.012-.15.014-.15.016-.15.018-.16.02-.15.021-.15.023-.16.025-.15.026-.16.03-.16.03-.16.03-.16.034-.16.035-.16.037-.17.04-.16.04-.17.041-.16.044-.17.045-.17.047-.17.05-.17.05-.17.051-.17.053-.18.055-.17.056-.18.058-.17.06-.18.061-.18.062-.17.064-.18.065-.18.066-.18.068-.18.07-.19.07-.18.071-.18.073-.19.074-.18.075-.19.076-.18.078-.19.078-.19.08-.18.078-.38.166-.38.168-.38.17-.39.174-.38.177-.39.178-.39.182-.39.18-.2.097-.2.097-.2.1-.21.102-.21.106-.2.107-.22.11-.21.113-.21.115-.22.118-.22.12-.22.122-.22.125-.22.126-.22.13-.23.131-.22.133-.23.135-.23.138-.23.14-.23.141-.23.143-.23.145-.23.147-.23.15-.24.15-.23.151-.24.154-.23.156-.24.157-.24.158-.23.161-.24.161-.24.163-.23.164-.24.166-.24.167-.24.168-.23.17-.24.17-.24.171-.24.173-.23.173-.24.175-.23.176-.24.176-.24.177-.23.178-.23.18-.24.18-.23.18-.23.18-.23.181-.23.182-.23.183-.23.183-.23.183-.23.184-.22.184-.23.185-.22.184-.23.185-.22.185-.22.19-.98.823-.97.81-.94.793-.93.781-.46.385-.45.384-.45.383-.45.381-.44.38-.44.381-.43.38-.44.381-.43.382-.43.383-.43.386-.44.388-.42.391-.43.394-.44.401-.21.198-.21.202-.22.203-.21.204-.22.206-.21.207-.22.21-.22.21-.21.21-.22.214-.22.215-.22.217-.22.22-.22.22-.22.222-.22.225-.22.226-.23.23-.22.23-.22.234-.23.236-.23.238-.23.24-.23.244-.23.245-.23.25-.23.25-.24.254-.23.257-.24.26-.24.262-.24.266-.24.27-.24.271-.25.275-.24.278-.25.282-.25.285-.25.29-.25.291-.25.296-.26.3-.26.302-.26.307-.26.311-.26.314-.27.32-.27.321-.27.327-.27.33-.27.335-.28.34-.27.342-.29.348-.28.351-.28.357-.29.361-.29.365-.29.37-.29.375-.3.38-.3.383-.3.39-.3.393-.31.4-.31.403-.31.41-.31.413-.32.42-.32.424-.32.43-.33.434-.33.441-.33.446-.33.451-.34.457-.34.463-.34.468-.34.474-.35.48-.35.485-.36.491-.42.587-.42.59-.42.59-.42.595-.42.596-.42.6-.42.601-.42.603-.42.606-.43.608-.41.61-.42.61-.42.613-.42.614-.42.616-.41.617-.42.618-.41.62-.41.62-.41.62-.42.622-.41.623-.4.623-.41.623-.4.624-.41.624-.4.624-.4.624-.4.624-.39.624-.4.623-.39.623-.39.623-.39.622-.38.621-.39.62-.38.62-.38.617-.37.617-.38.616-.37.614-.37.612-.36.611-.36.61-.36.607-.36.605-.35.603-.35.601-.35.598-.34.596-.34.594-.13.228-.22.357-.34.58-.35.575-.34.572-.34.57-.33.567-.33.563-.32.56-.32.556-.32.553-.31.55-.31.544-.3.542-.32.56-.29.54-.29.522-.28.503-.26.486-.25.472-.25.458-.23.445-.23.435-.23.426-.21.418-.21.412-.21.41-.2.404-.21.405-.2.405-.2.408-.2.412-.2.417-.2.424-.21.432-.21.44-.44.924-.46.975-.49 1.04-.52 1.116-.57 1.207-.22.452-.23.494-.26.528-.27.56-.29.588-.3.617-.32.643-.33.667-.68 1.388-.72 1.452-1.49 2.996-.74 1.501-.73 1.471-.71 1.418-.66 1.344-.31.632-.29.605-.28.574-.27.538-.24.498-.21.454-.2.405-.16.362-.81 1.738-.39.84-.38.821-.37.802-.36.786-.35.77-.35.755-.34.743-.32.732-.33.722-.32.714-.31.707-.3.702-.31.698-.3.697-.29.697-.3.698-.29.702-.29.71-.15.351-.14.358-.15.359-.15.362-.14.364-.15.367-.14.369-.15.373-.15.376-.15.38-.15.383-.15.388-.15.391-.15.396-.15.4-.15.401-.31.829-.32.846-.32.869-.33.897-.03.09.17-.082.5-.252.51-.251.5-.248.5-.243.49-.24.49-.237.94-.461.94-.449.91-.436.89-.424.87-.414.86-.404.84-.395 1.63-.765 1.57-.74.78-.361.76-.358.75-.355.74-.353.74-.351.73-.351.72-.353.36-.175.36-.176.36-.177.36-.178.36-.179.36-.179.36-.18.36-.182.35-.183.36-.184.36-.186.36-.187.36-.189.36-.191.37-.193.36-.195.37-.197.36-.199.37-.202.37-.205.38-.207.38-.213 1.53-.858 1.54-.858 1.53-.857 1.53-.856.76-.428.76-.428.76-.43.75-.429.76-.431.75-.43.75-.434.75-.434.75-.435.74-.437.74-.44.37-.219.37-.22.37-.222.37-.222.36-.222.37-.223.37-.223.36-.224.37-.225.36-.225.36-.226.37-.227.36-.227.36-.228.36-.229.36-.23.35-.23.36-.23.36-.233.35-.233.36-.234.35-.235.35-.235.36-.237.35-.237.35-.24.8-.546.81-.555.81-.563.83-.569.83-.576.84-.582.69-.482.15-.107.85-.595.86-.602.85-.606.87-.612.86-.617.87-.622.87-.626.87-.63.88-.634.87-.638.87-.643.44-.32.44-.323.43-.324.44-.324.43-.325.44-.325.43-.326.43-.327.43-.327.44-.328.43-.328.43-.329.43-.329.42-.329.43-.33.43-.33.42-.33.42-.33.42-.332.42-.33.42-.332.42-.33.41-.332.42-.33.41-.333.41-.33.4-.332.41-.33.45-.369.44-.37.45-.375.45-.377.45-.38.46-.383.45-.386.45-.388.46-.392.45-.393.46-.397.45-.399.46-.4.46-.404.45-.406.46-.407.46-.41.45-.412.46-.413.46-.415.45-.418.46-.418.46-.42.46-.422.45-.423.46-.424.45-.426.46-.427.45-.427.45-.429.45-.43.46-.43.45-.43.45-.433.45-.433.44-.433.45-.433.45-.434.44-.434.44-.434.44-.434.44-.434.44-.435.44-.434.43-.434.44-.433.43-.434.43-.432.43-.433.42-.43.43-.432.42-.43.42-.43.42-.428.41-.428.42-.426.41-.425.41-.424.41-.422.4-.422.4-.419.4-.418.39-.417.4-.412.21-.225.21-.223.2-.223.21-.224.2-.225.21-.225.2-.226.2-.226.2-.227.2-.227.2-.228.2-.228.2-.229.19-.229.2-.229.19-.23.19-.23.19-.23.2-.232.19-.23.18-.233.19-.232.19-.232.18-.233.19-.232.18-.233.18-.233.19-.233.17-.234.18-.233.18-.234.18-.234.18-.234.17-.234.18-.234.17-.234.17-.234.17-.234.17-.235.17-.234.17-.234.17-.234.16-.234.17-.234.16-.234.17-.23.32-.47.32-.466.32-.466.31-.464.31-.463.31-.462.3-.46.29-.459.3-.458.29-.455.28-.454.29-.45.27-.45.28-.447.27-.445.27-.44.26-.44.26-.436.26-.434.26-.429.25-.427.24-.423.25-.42.24-.416.24-.412.23-.409.23-.402.45-.798.44-.779.43-.76.82-1.462.39-.699.38-.668.08-.143.07-.134.07-.136.08-.137.07-.139.07-.14.08-.142.07-.143.07-.145.08-.146.07-.148.07-.149.07-.15.07-.152.08-.153.07-.154.07-.155.07-.157.07-.158.07-.159.07-.16.07-.16.06-.164.07-.163.07-.165.07-.165.06-.167.07-.167.07-.169.07-.169.06-.17.06-.167.14-.35.12-.348.13-.35.12-.355.13-.357.12-.359.12-.362.11-.364.12-.365.11-.368.11-.369.11-.37.11-.373.11-.373.1-.373.1-.375.1-.375.1-.376.1-.375.09-.376.1-.376.08-.375.09-.375.09-.374.08-.374.09-.372.08-.37.07-.37.08-.369.07-.367.08-.365.07-.363.06-.36.07-.358.06-.356.07-.352.05-.35.06-.347.06-.344.05-.34.05-.336.05-.333.05-.328.04-.324.04-.32.05-.316.03-.31.04-.3.03-.242.02-.238.01-.118.01-.124.02-.243.01-.247.01-.248.01-.25.01-.253.01-.254V41.85l-.01-.263-.01-.264-.01-.264-.01-.265-.02-.266-.01-.265-.02-.266-.02-.266-.02-.266-.02-.266-.03-.265-.03-.265-.03-.265-.03-.264-.03-.263-.03-.262-.04-.26-.03-.26-.04-.26-.04-.258-.04-.256-.04-.254-.05-.253-.04-.25-.05-.25-.05-.247-.05-.244-.05-.243-.05-.24-.06-.237-.05-.234-.06-.232-.06-.229-.05-.225-.06-.223-.07-.218-.06-.216-.06-.21-.06-.209-.07-.204-.06-.199-.07-.196-.06-.19-.07-.187-.06-.18-.07-.178-.07-.17-.07-.167-.06-.159-.06-.13-.06-.129-.06-.128-.06-.129-.06-.13-.07-.129-.07-.129-.07-.129-.07-.129-.07-.129-.08-.129-.08-.129-.08-.129-.08-.128-.08-.128-.09-.127-.08-.128-.09-.126-.09-.127-.09-.125-.1-.126-.09-.124-.1-.124-.1-.123-.1-.122-.1-.122-.1-.12-.11-.12-.1-.12-.11-.118-.11-.117-.11-.116-.11-.114-.11-.114-.11-.113-.12-.11-.11-.11-.12-.11-.12-.108-.12-.106-.11-.105-.13-.103-.12-.102-.12-.1-.12-.1-.12-.097-.13-.096-.12-.094-.12-.093-.13-.09-.12-.09-.13-.087-.13-.086-.12-.084-.13-.082-.13-.08-.12-.078-.13-.077-.13-.074-.12-.073-.13-.07-.13-.069-.12-.066-.13-.066-.07-.033.05.026-.07-.034-.07-.034.05.025-.07-.033-.07-.033.05.023-.08-.032-.07-.032.05.021-.08-.03-.07-.033.04.021-.07-.03-.08-.032.05.02-.08-.03-.08-.03.04.017-.08-.029-.07-.029.04.016-.08-.028-.08-.028.04.015-.09-.028-.08-.027.04.015-.08-.027-.08-.027.04.014-.09-.027-.07-.019-.08-.025.05.018-.17-.05-.14-.036-.15-.036-.15-.035-.15-.034-.16-.033-.15-.03-.17-.032-.16-.029-.17-.029-.17-.027-.18-.026-.17-.024-.18-.024-.18-.022-.19-.02-.18-.02-.19-.02-.19-.017-.2-.016-.19-.015-.2-.014-.2-.013-.2-.01-.2-.012-.2-.009-.2-.008-.21-.007-.21-.007-.2-.005-.21-.004-.21-.003-.21-.002h-.64z" fill="#fff"/></svg>