<?xml version="1.0" encoding="UTF-8" standalone="no"?>
<!DOCTYPE svg PUBLIC "-//W3C//DTD SVG 1.1//EN" "http://www.w3.org/Graphics/SVG/1.1/DTD/svg11.dtd">
<svg width="100%" height="100%" viewBox="0 0 821 313" version="1.1" xmlns="http://www.w3.org/2000/svg" xmlns:xlink="http://www.w3.org/1999/xlink" xml:space="preserve" xmlns:serif="http://www.serif.com/" style="fill-rule:evenodd;clip-rule:evenodd;stroke-linecap:round;stroke-linejoin:round;stroke-miterlimit:1.5;">
    <g transform="matrix(1,0,0,1,-742.752,-1281.6)">
        <g id="Leslie_Signature">
            <g id="Leslie">
                <path d="M850,1336C849.493,1343.68 849.254,1350.62 852,1358C861.478,1383.48 893.878,1392.67 918,1389C943.664,1385.1 963.855,1362.09 979,1343C990.946,1327.94 1000.7,1315.97 1004,1297C1004.57,1293.7 1004.35,1289.07 1002.02,1286.3C1000.89,1284.95 997.849,1286.54 997,1287C989.461,1291.08 989.065,1290.83 984,1298C966.929,1322.17 951.993,1347.16 940.025,1374.25C920.198,1419.12 920.117,1418.86 899,1463C878.338,1506.19 853.088,1562.17 802.778,1577.13C797.088,1578.82 791.144,1579.64 785.233,1580.18C758.586,1582.62 749.047,1554.28 748,1533C747.639,1525.67 746.625,1518.33 747,1511C749.03,1471.28 771.653,1438.08 807,1421C824.812,1412.4 842.458,1404.61 862.617,1407.75C868.991,1408.74 875.907,1410.68 881.493,1414.04C890.83,1419.65 893.745,1426.23 900,1436C911.413,1453.83 911.011,1478.21 910.043,1498.42C909.573,1508.23 908.952,1518.07 907.153,1527.72C906.176,1532.96 903.393,1537.7 901.772,1542.78C900.236,1547.6 899.511,1552.67 897.688,1557.38C892.02,1572.03 887.373,1576.1 877.524,1589.35C875.464,1592.12 881.645,1583.8 883.706,1581.03" style="fill:none;stroke:black;stroke-width:8.33px;"/>
                <path d="M843.596,1543.28C847.91,1548.93 853.005,1555.64 859.203,1559.56C873.28,1568.45 893.996,1570.2 909.598,1564.47C922.667,1559.66 936.117,1547.24 944.298,1536.31C960.822,1514.24 966.731,1501.75 978.906,1477.14C980.884,1473.14 982.752,1469.08 984.383,1464.92C984.843,1463.75 985.161,1462.49 985.152,1461.23C985.148,1460.6 984.85,1459.12 984.347,1459.51C973.135,1468.11 964.839,1485.35 958.174,1496.76C952.621,1506.26 946.339,1515.39 941.731,1525.39C937.159,1535.3 934.179,1545.88 930.745,1556.24C930.333,1557.49 929.541,1561.72 931.148,1563.05C932.633,1564.29 935.468,1562.08 936.227,1561.41C943.301,1555.18 948.443,1547.02 954.61,1539.96C955.35,1539.11 963.889,1529.49 965.032,1528.24C980.763,1511.08 1004.93,1486.46 1031.43,1493.07C1038.1,1494.73 1040.62,1504.35 1041.6,1510.13C1044.03,1524.51 1042.1,1538.59 1033.23,1550.41C1030.18,1554.47 1028.34,1557.29 1023.49,1559.31C1015.02,1562.83 992.825,1562.03 996.382,1547.25C996.8,1545.51 999.595,1545.25 1000.81,1545.4C1009.17,1546.44 1017.42,1548.43 1025.82,1549.03C1045.11,1550.39 1066.62,1543.28 1081.28,1530.7C1118.61,1498.64 1146.67,1459.08 1166.49,1414.11C1170.25,1405.57 1177.01,1383.87 1167.38,1376.26C1163.51,1373.19 1156.51,1380.84 1154.95,1382.39C1147.05,1390.24 1138.81,1397.79 1131.59,1406.26C1104.46,1438.07 1087.28,1476.53 1074.37,1515.86C1071.96,1523.19 1065.35,1540.72 1068.51,1548.32C1072.14,1557.03 1082.53,1552.24 1087.79,1548.3C1100.28,1538.96 1109.44,1525.64 1121.72,1515.98C1125.46,1513.03 1131.82,1509.58 1135.99,1514.06C1144.89,1523.62 1140,1539.69 1147.13,1550.42C1151.4,1556.86 1157.81,1562.88 1166.28,1559.47C1169.85,1558.03 1172.7,1555.19 1175.69,1552.75C1178.46,1550.48 1180.96,1547.9 1183.5,1545.38C1188.82,1540.13 1193.88,1534.63 1199.17,1529.35" style="fill:none;stroke:black;stroke-width:8.33px;"/>
                <g transform="matrix(1.14539,0,0,1.14539,-177.945,-216.184)">
                    <ellipse cx="1202.28" cy="1463.63" rx="3.492" ry="3.497"/>
                </g>
            </g>
            <g id="Vera">
                <path d="M1313.72,1330.66C1296.07,1366.1 1294.98,1365.52 1281.63,1402.81C1275.72,1419.31 1270.84,1436.16 1265.9,1452.97C1263.93,1459.69 1262.24,1466.5 1260.89,1473.38C1259.54,1480.25 1258.63,1487.2 1257.8,1494.16C1257.4,1497.47 1257.1,1500.82 1257.21,1504.16C1257.21,1504.37 1258.99,1510.12 1260.71,1508.59C1264.17,1505.52 1267.42,1502.2 1270.34,1498.62C1275.16,1492.71 1283,1478.79 1286.38,1472.99C1297.47,1454 1309.75,1435.75 1320.77,1416.75C1329.32,1402.02 1337.08,1386.83 1345.84,1372.22C1353.21,1359.93 1360.67,1347.69 1368.68,1335.8C1376.67,1323.92 1385.06,1312.29 1393.81,1300.96" style="fill:none;stroke:black;stroke-width:8.33px;"/>
                <path d="M1281.7,1488.54C1285.48,1498.51 1289.45,1508.41 1293.53,1518.26C1299.72,1533.22 1319.84,1541.37 1334.08,1531.55C1348.3,1521.74 1359.7,1503.1 1363.93,1486.57C1365.1,1481.97 1369.18,1462.53 1360.38,1460.53C1352.95,1458.85 1346.39,1472.72 1344.46,1476.37C1334.53,1495.2 1331.95,1514.33 1334.93,1535.58C1335.78,1541.6 1339.43,1547.33 1345.15,1549.83C1360.13,1556.36 1377.08,1541.98 1386.38,1532.71C1397.35,1521.78 1407.33,1509.9 1418,1498.67C1424.52,1491.8 1432.03,1482.76 1442.39,1481.85C1448.9,1481.28 1449.87,1492.58 1450.17,1496.47C1450.84,1505.29 1450.03,1516.32 1451.89,1525.28C1452.25,1527.05 1452.49,1529.01 1453.63,1530.4C1456.44,1533.82 1461.74,1528.97 1463.27,1526.99C1469.01,1519.55 1471.76,1512.35 1478.79,1505.67C1480.11,1504.42 1480.96,1508.95 1480.75,1510.75C1480.16,1515.93 1478.92,1521.01 1478.14,1526.16C1476.78,1535.08 1474.24,1555.98 1487.43,1558.16C1498.05,1559.92 1507.5,1553.56 1515.69,1547.7C1533.92,1534.66 1545.08,1525.92 1558.71,1507.91" style="fill:none;stroke:black;stroke-width:8.33px;"/>
            </g>
        </g>
    </g>
</svg>
